<svg id="Capa_1" data-name="Capa 1" xmlns="http://www.w3.org/2000/svg" xmlns:xlink="http://www.w3.org/1999/xlink" viewBox="0 0 130.17 569.81"><defs><style>.cls-1{fill:none;}.cls-2{clip-path:url(#clip-path);}.cls-3{fill:#b7976c;}.cls-4{fill:#3b3c54;}.cls-5{fill:#fdf8f2;}.cls-6{fill:#131414;}.cls-7{fill:#a4a5a8;}.cls-8{fill:#d3722b;}</style><clipPath id="clip-path"><rect class="cls-1" x="-20.6" y="-13.37" width="149.77" height="582.51"/></clipPath></defs><title>Mesa de trabajo 1</title><g class="cls-2"><g id="guitar"><path class="cls-3" d="M114.54,351.82c.42-.05.85-.08,1.28-.1C115.39,351.74,115,351.77,114.54,351.82Z"/><path class="cls-4" d="M115.83,351.88l0-.33-1.29.1,0,.33Z"/><path class="cls-4" d="M36.5,437.55c26.44-39.06,8.46-40.36.31-68.91s2.91-42,20.7-52.49C69.76,308.94,91,306.33,105,305.4l-.47,48.69a40.66,40.66,0,1,0,27.76-.08l-.74-48.68c14.1.85,35.3,3.35,47.59,10.49,17.84,10.37,29,23.79,21,52.38s-26,30,.7,68.9c27.07,39.52,32.34,47.3,32,83.16s-26.73,57.88-50.46,66.91S119.11,595,119.11,595s-39.54,1.45-63.32-7.44S5.51,556.73,5,520.88,9.64,477.22,36.5,437.55Z"/><path class="cls-5" d="M132.43,591.34c11.78-.36,33.77-1.81,48.7-7.49,23.07-8.78,47.84-30.1,48.17-63.63.34-34.83-4.5-41.9-31.37-81.11-20.6-30.08-15.55-40.09-8.56-53.93a94.54,94.54,0,0,0,7.38-17.94c7.4-26.49-2.38-38.49-19.35-48.35-10.89-6.33-29.79-8.8-42.2-9.76l.64,42.45a44.22,44.22,0,0,1-15.92,84.9c-.42,0-.83,0-1.25,0a44.21,44.21,0,0,1-44.34-44.09A44.4,44.4,0,0,1,101,351.67l.41-42.44c-12.4,1-31.29,3.59-42.14,10-16.91,10-26.63,22-19.08,48.46a93.48,93.48,0,0,0,7.47,17.9c7.07,13.8,12.17,23.78-8.26,54C12.79,478.9,8,486,8.51,520.83,9,554.35,33.91,575.54,57,584.19c21.86,8.18,57.66,7.35,61.68,7.23h.51S124.63,591.57,132.43,591.34Z"/><path class="cls-4" d="M233,520.26a66,66,0,0,1-16.5,43.62,86,86,0,0,1-34.06,23.45c-23.49,8.93-62.95,7.81-63.33,7.8s-39.85,1.35-63.39-7.46a85.92,85.92,0,0,1-34.19-23.25A66,66,0,0,1,4.8,520.89c0-1.34,0-2.65,0-3.91-.09-32.72,6-41.71,31.6-79.52,9.6-14.19,13.88-24.17,13.86-32.36,0-6.5-2.58-11.5-5.83-17.84a97,97,0,0,1-7.74-18.57,64.31,64.31,0,0,1-2.73-17.32c-.05-18.94,11.85-28.5,23.5-35.36,12.07-7.1,32.55-9.78,47.61-10.78h.18l-.47,48.87v.11l-.11,0a40.51,40.51,0,1,0,27.64-.07l-.11,0-.74-49h.18c15.06.91,35.56,3.48,47.67,10.51C191,322.47,202.91,332,203,350.91a64.42,64.42,0,0,1-2.63,17.33,97.21,97.21,0,0,1-7.64,18.61c-3.21,6.36-5.75,11.38-5.73,17.88,0,8.18,4.35,18.14,14,32.27,25.81,37.68,31.94,46.63,32,79.35C233,517.62,233,518.92,233,520.26ZM192.39,386.7A96.5,96.5,0,0,0,200,368.15a64.2,64.2,0,0,0,2.63-17.24c-.06-18.77-11.93-28.2-23.53-34.94-12-7-32.33-9.54-47.34-10.46l.74,48.38a40.84,40.84,0,1,1-28.1.08l.47-48.39c-15,1-35.31,3.68-47.28,10.72C46,323.11,34.2,332.6,34.26,351.37A64,64,0,0,0,37,368.6a96.49,96.49,0,0,0,7.72,18.5c3.14,6.13,5.84,11.42,5.86,18,0,8.26-4.27,18.29-13.91,32.54C10.09,476.86,4.59,485,5.13,520.88c.54,35.22,26.55,57.44,50.72,66.48,23.47,8.78,62.86,7.45,63.27,7.43s39.79,1.14,63.21-7.78c24.12-9.17,50-31.53,50.35-66.75,0-1.34,0-2.64,0-3.91-.09-32.61-6.21-41.55-32-79.16C191,423,186.65,413,186.63,404.73,186.61,398.15,189.29,392.84,192.39,386.7Z"/><path class="cls-3" d="M112.64,352.05l1.11-.14Z"/><path class="cls-4" d="M113.77,352.07l0-.33-1.12.14,0,.34Z"/><path class="cls-3" d="M116.48,351.67c.65,0,1.3-.05,2-.06C117.78,351.62,117.13,351.64,116.48,351.67Z"/><path class="cls-4" d="M118.44,351.78v-.33c-.63,0-1.27,0-2,.05l0,.34C117.18,351.8,117.82,351.78,118.44,351.78Z"/><path class="cls-3" d="M106.23,353.52c-.5.16-1,.33-1.49.51C105.23,353.85,105.73,353.68,106.23,353.52Z"/><path class="cls-4" d="M106.28,353.68l-.1-.32c-.48.15-1,.32-1.49.51h0l.11.31,1.47-.5Z"/><path class="cls-3" d="M107.09,353.27l1-.28Z"/><path class="cls-4" d="M108.08,353.16l-.08-.33-.8.23-.16,0,.1.33.15-.05Z"/><path class="cls-3" d="M108.91,352.78l1-.23Z"/><path class="cls-4" d="M109.93,352.71l-.07-.33-1,.23.08.33Z"/><path class="cls-3" d="M110.76,352.37l1-.19Z"/><path class="cls-4" d="M111.82,352.35l-.06-.33-1,.19.06.33Z"/><path class="cls-4" d="M117.49,3.9l19.16,0s-2.3,61.69-2.49,74.46-5.75,16.48-5.75,16.48l-10.67,0-10.67,0s-5.59-3.68-5.85-16.45S98.33,4,98.33,4Z"/><path class="cls-5" d="M127,91.25c1.16-1.38,3.51-5.14,3.62-13,.16-10.85,1.86-57.34,2.35-70.85L102,7.5c.57,13.5,2.52,60,2.74,70.83.16,7.85,2.53,11.59,3.7,13Z"/><path class="cls-6" d="M136.81,3.86c0,.61-2.29,61.83-2.48,74.45s-5.6,16.47-5.83,16.62l0,0L107,95l0,0c-.23-.15-5.66-3.87-5.92-16.59S98.19,4.58,98.16,4V3.79l38.67-.11ZM101.39,78.4c.24,11.95,5.23,15.92,5.73,16.28l21.23-.05c.5-.37,5.47-4.37,5.64-16.32C134.18,66,136.34,7.67,136.47,4l-38,.1C98.66,7.77,101.14,66.1,101.39,78.4Z"/><rect class="cls-4" x="91.66" y="23.88" width="7.5" height="1.68" transform="translate(-0.07 0.26) rotate(-0.16)"/><path class="cls-4" d="M93.77,27.92a3.43,3.43,0,0,1-3.43,3.45h0a3.45,3.45,0,0,1-3.46-3.43V21.55A3.43,3.43,0,0,1,90.3,18.1h0a3.45,3.45,0,0,1,3.46,3.43Z"/><rect class="cls-4" x="92.82" y="46.4" width="7.5" height="1.68" transform="matrix(1, 0, 0, 1, -0.13, 0.27)"/><path class="cls-4" d="M94.93,50.43a3.46,3.46,0,0,1-3.44,3.46h0A3.44,3.44,0,0,1,88,50.45l0-6.38a3.44,3.44,0,0,1,3.44-3.46h0a3.45,3.45,0,0,1,3.45,3.44Z"/><rect class="cls-4" x="93.63" y="69.67" width="7.5" height="1.68" transform="translate(-0.19 0.27) rotate(-0.16)"/><path class="cls-4" d="M95.74,73.71a3.45,3.45,0,0,1-3.44,3.45h0a3.43,3.43,0,0,1-3.45-3.43l0-6.39a3.43,3.43,0,0,1,3.43-3.45h0a3.44,3.44,0,0,1,3.46,3.43Z"/><path class="cls-7" d="M107.07,94.85l10.67,0,10.67,0L132.33,354a40.7,40.7,0,0,0-27.76.08Z"/><path class="cls-4" d="M132.27,354.17a40.59,40.59,0,0,0-27.64.07l-.23.09,2.5-259.48v-.17l21.67-.05L132.5,354v.24ZM107.23,95l-2.49,258.83a41,41,0,0,1,27.42-.08L128.24,95Z"/><path class="cls-4" d="M115,243.73a3.13,3.13,0,1,0,3.12-3.14A3.12,3.12,0,0,0,115,243.73Z"/><polygon class="cls-4" points="130.12 207.73 118.05 207.76 118.04 206.3 130.09 206.27 130.12 207.73"/><path class="cls-4" d="M122.9,279.82a3.13,3.13,0,1,0,3.12-3.14A3.13,3.13,0,0,0,122.9,279.82Z"/><path class="cls-4" d="M121.88,214.64A3.13,3.13,0,1,0,125,211.5,3.13,3.13,0,0,0,121.88,214.64Z"/><path class="cls-4" d="M106.41,8.92l11.09,0,11.09,0a2.91,2.91,0,1,1,0,5.82l-11.09,0-11.09,0a2.91,2.91,0,1,1,0-5.82Z"/><path class="cls-4" d="M118.77,469.37l44.14-.13.05,17.6-14.79,0s-.78,1.34-5.71,3.71-12.65,3.06-14.67,3.07l-9,0-9,0c-2,0-9.75-.64-14.69-3S89.46,487,89.46,487l-14.79,0,0-17.59Z"/><path class="cls-4" d="M148.25,487c-.25.34-1.42,1.64-5.71,3.7-4.86,2.33-12.51,3.08-14.75,3.08l-17.92.05c-2.24,0-9.89-.69-14.76-3-4.3-2-5.48-3.33-5.74-3.66l-14.87,0,0-17.93,88.63-.24,0,17.92ZM74.79,469.65l0,17.26,14.62,0h.09l0,.08s.86,1.35,5.66,3.62,12.39,3,14.61,3l17.92-.05c2.22,0,9.8-.74,14.6-3.05s5.62-3.64,5.63-3.65l0-.08,14.72,0,0-17.26Z"/><polygon class="cls-4" points="118.43 347.58 132.23 347.54 132.24 349 118.44 349.04 104.63 349.08 104.63 347.62 118.43 347.58"/><polygon class="cls-4" points="104.71 339.55 118.41 339.51 132.11 339.48 132.13 340.93 118.41 340.97 104.69 341.01 104.71 339.55"/><polygon class="cls-4" points="105.24 284.43 118.26 284.39 131.28 284.36 131.3 285.81 118.26 285.85 105.22 285.89 105.24 284.43"/><polygon class="cls-4" points="105.35 273.22 118.23 273.19 131.11 273.15 131.13 274.61 118.23 274.65 105.33 274.68 105.35 273.22"/><polygon class="cls-4" points="105.14 295.09 118.29 295.06 131.44 295.02 131.46 296.48 118.29 296.51 105.12 296.55 105.14 295.09"/><polygon class="cls-4" points="105.46 261.12 118.19 261.09 130.92 261.05 130.95 262.51 118.2 262.55 105.45 262.58 105.46 261.12"/><polygon class="cls-4" points="104.78 332.49 118.39 332.45 132 332.42 132.03 333.88 118.39 333.91 104.76 333.95 104.78 332.49"/><polygon class="cls-4" points="105.57 249.78 118.16 249.75 130.75 249.71 130.77 251.17 118.17 251.2 105.56 251.24 105.57 249.78"/><polygon class="cls-4" points="105.04 305.4 118.31 305.37 131.59 305.33 131.62 306.79 118.32 306.82 105.02 306.86 105.04 305.4"/><polygon class="cls-4" points="104.95 314.45 118.34 314.42 131.73 314.38 131.75 315.84 118.34 315.88 104.94 315.91 104.95 314.45"/><polygon class="cls-4" points="104.87 323.25 118.36 323.21 131.86 323.17 131.88 324.63 118.37 324.67 104.85 324.71 104.87 323.25"/><polygon class="cls-4" points="106.3 174.32 117.95 174.29 129.61 174.25 129.63 175.71 117.96 175.75 106.28 175.78 106.3 174.32"/><polygon class="cls-4" points="105.71 235.91 118.12 235.88 130.54 235.85 130.56 237.3 118.13 237.34 105.69 237.37 105.71 235.91"/><polygon class="cls-4" points="106.47 156.59 117.91 156.56 129.34 156.53 129.37 157.98 117.91 158.01 106.46 158.05 106.47 156.59"/><polygon class="cls-4" points="106.84 118.6 117.8 118.57 128.77 118.54 128.79 120 117.81 120.03 106.82 120.06 106.84 118.6"/><polygon class="cls-4" points="106.65 137.76 117.86 137.73 129.06 137.7 129.08 139.16 117.86 139.19 106.64 139.22 106.65 137.76"/><polygon class="cls-4" points="105.85 220.96 118.08 220.92 130.32 220.89 130.34 222.35 118.09 222.38 105.84 222.41 105.85 220.96"/><polygon class="cls-4" points="106.15 190.45 118 190.42 129.85 190.39 129.88 191.85 118 191.88 106.13 191.91 106.15 190.45"/><polygon class="cls-4" points="105.98 207.79 118.05 207.76 118.04 206.3 105.99 206.34 105.98 207.79"/><path class="cls-4" d="M113.59,279.85a3.13,3.13,0,1,1-3.14-3.13A3.13,3.13,0,0,1,113.59,279.85Z"/><path class="cls-4" d="M114.26,214.66a3.13,3.13,0,1,1-3.14-3.12A3.14,3.14,0,0,1,114.26,214.66Z"/><path class="cls-4" d="M110,182.91a3.13,3.13,0,1,0,3.12-3.14A3.12,3.12,0,0,0,110,182.91Z"/><circle class="cls-4" cx="118.55" cy="392.28" r="40.67" transform="translate(-85.25 36.75) rotate(-13.01)"/><circle class="cls-5" cx="118.55" cy="392.28" r="33.57"/><path class="cls-4" d="M118.67,433.12a40.84,40.84,0,1,1,40.72-40.95A40.88,40.88,0,0,1,118.67,433.12Zm0-.33A40.51,40.51,0,1,0,78.05,392.4,40.55,40.55,0,0,0,118.66,432.79Z"/><path class="cls-4" d="M90.43,392.36a28.12,28.12,0,1,0,28.05-28.2A28.14,28.14,0,0,0,90.43,392.36Z"/><path class="cls-5" d="M118.66,432a39.71,39.71,0,1,1,39.6-39.81A39.75,39.75,0,0,1,118.66,432Zm0-.34a39.37,39.37,0,1,0-39.47-39.26A39.41,39.41,0,0,0,118.66,431.65Z"/><path class="cls-5" d="M118.66,430.69A38.41,38.41,0,1,1,157,392.18,38.44,38.44,0,0,1,118.66,430.69Zm0-.33a38.07,38.07,0,1,0-38.18-38A38.12,38.12,0,0,0,118.66,430.36Z"/><path class="cls-5" d="M118.66,429.39a37.11,37.11,0,1,1,37-37.21A37.15,37.15,0,0,1,118.66,429.39Zm0-.33a36.78,36.78,0,1,0-36.87-36.67A36.82,36.82,0,0,0,118.65,429.06Z"/><path class="cls-5" d="M118.65,428.25a36,36,0,1,1,35.87-36.06A36,36,0,0,1,118.65,428.25Zm0-.34a35.63,35.63,0,1,0-35.72-35.53A35.66,35.66,0,0,0,118.65,427.91Z"/><path class="cls-5" d="M118.65,427.13a34.85,34.85,0,1,1,34.75-34.94A34.89,34.89,0,0,1,118.65,427.13Zm0-.34a34.51,34.51,0,1,0-34.6-34.41A34.54,34.54,0,0,0,118.65,426.79Z"/><polygon class="cls-5" points="111.64 46.35 111.3 46.35 111.3 95.03 110.11 482.24 110.44 482.24 111.65 95.02 111.64 46.35"/><polygon class="cls-5" points="115.52 482.09 115.05 94.85 109.15 24.68 108.81 24.68 114.72 94.86 115.18 482.1 115.52 482.09"/><polygon class="cls-5" points="108.71 70.48 108.37 70.48 104.65 482.8 104.98 482.8 108.71 70.48"/><polygon class="cls-5" points="126.77 481.17 123.12 94.65 123.91 46.32 123.57 46.32 122.78 94.66 126.44 481.17 126.77 481.17"/><polygon class="cls-5" points="126.28 24.64 125.94 24.63 119.41 94.88 120.43 481.14 120.77 481.15 119.75 94.9 126.28 24.64"/><polygon class="cls-5" points="132.97 480.98 126.97 70.43 126.63 70.43 132.63 480.99 132.97 480.98"/><path class="cls-5" d="M125.52,480.65a2.42,2.42,0,1,0,2.39-2.45A2.41,2.41,0,0,0,125.52,480.65Z"/><path class="cls-5" d="M119.18,480.72a2.42,2.42,0,1,0,2.39-2.44A2.41,2.41,0,0,0,119.18,480.72Z"/><path class="cls-5" d="M111.35,481.16a2.42,2.42,0,1,1-2.45-2.39A2.43,2.43,0,0,1,111.35,481.16Z"/><path class="cls-5" d="M117.68,480.91a2.42,2.42,0,0,1-4.84.06,2.42,2.42,0,0,1,4.84-.06Z"/><path class="cls-5" d="M105,481.41a2.42,2.42,0,1,1-2.44-2.39A2.42,2.42,0,0,1,105,481.41Z"/><path class="cls-5" d="M124,480.67a2.42,2.42,0,1,1-2.45-2.39A2.42,2.42,0,0,1,124,480.67Z"/><path class="cls-4" d="M123.68,23.8a4.87,4.87,0,1,0,4.86-4.89A4.86,4.86,0,0,0,123.68,23.8Z"/><path class="cls-4" d="M122.31,47.17a4.88,4.88,0,1,0,4.86-4.89A4.88,4.88,0,0,0,122.31,47.17Z"/><path class="cls-4" d="M121.93,70.44a4.88,4.88,0,1,0,4.86-4.88A4.87,4.87,0,0,0,121.93,70.44Z"/><path class="cls-4" d="M111.41,23.84A4.88,4.88,0,1,1,106.52,19,4.87,4.87,0,0,1,111.41,23.84Z"/><path class="cls-4" d="M112.9,47.19A4.88,4.88,0,1,1,108,42.33,4.88,4.88,0,0,1,112.9,47.19Z"/><path class="cls-4" d="M113.41,70.47a4.87,4.87,0,1,1-4.88-4.86A4.86,4.86,0,0,1,113.41,70.47Z"/><path class="cls-8" d="M117.84,432.93c-8.19,39.88-76.84,26.43-53.78-16.18,23.36-43.19-1-36.46,3-64.09,3.18-22.21,19.64-29,37.86-30.89l-.31,32.32a40.66,40.66,0,0,0,13.27,78.84Z"/><path class="cls-4" d="M135.09,309c12.42,1,31.42,3.41,42.36,9.77,17,9.89,26.82,21.92,19.4,48.48a94.51,94.51,0,0,1-7.38,18c-3.56,7-6.62,13.1-6.05,21.39.59,8.55,5.09,18.55,14.6,32.42,26.88,39.24,31.73,46.32,31.39,81.18a62.49,62.49,0,0,1-15.63,41.3A82.16,82.16,0,0,1,181.17,584c-18.09,6.89-46,7.63-57.12,7.63-3,0-4.81-.06-4.83-.06H119s-2.39.09-6.24.09c-10.88,0-38.11-.71-55.75-7.31A82.38,82.38,0,0,1,24.25,562,62.53,62.53,0,0,1,8.4,520.83c-.53-34.87,4.28-42,31-81.35,9.43-13.93,13.87-24,14.42-32.5.52-8.29-2.58-14.35-6.17-21.37a93.93,93.93,0,0,1-7.48-17.91c-7.57-26.52,2.18-38.6,19.13-48.58,10.91-6.42,29.9-9,42.31-10l-.41,42.64a44.11,44.11,0,0,0,17.4,84.64h.12a44.11,44.11,0,0,0,17.06-84.74L135.09,309m-3.5-3.69.74,48.68A40.67,40.67,0,0,1,118.67,433h-.12a40.67,40.67,0,0,1-14-78.86L105,305.4c-14.09.93-35.28,3.54-47.53,10.75-17.79,10.47-28.84,24-20.7,52.49s26.13,29.85-.31,68.91C9.64,477.22,4.42,485,5,520.88S32,578.62,55.79,587.52c17.92,6.7,44.8,7.53,57,7.53,4,0,6.37-.09,6.37-.09s1.83.06,4.94.06c11.34,0,39.72-.76,58.34-7.85,23.73-9,50.11-31.06,50.46-66.91s-4.92-43.64-32-83.16c-26.66-38.92-8.68-40.31-.7-68.9s-3.14-42-21-52.38c-12.29-7.14-33.49-9.64-47.59-10.49Z"/></g></g></svg>