<svg id="Capa_1" data-name="Capa 1" xmlns="http://www.w3.org/2000/svg" viewBox="0 0 372 390"><defs><style>.cls-1{fill:#343a54;}.cls-2{fill:#3a3c54;}.cls-3{fill:#b5956b;}.cls-4{fill:#fcf7f1;}.cls-5{fill:#131313;}.cls-6{fill:#a2a3a6;}.cls-7{fill:#d16f2f;}</style></defs><title>Mesa de trabajo 1</title><rect class="cls-1" x="82.34" y="109.09" width="207.31" height="257.83"/><g id="guitar"><rect class="cls-2" x="161.75" y="17.97" width="1.07" height="4.79" transform="matrix(0, -1, 1, 0, 141.48, 182.59)"/><path class="cls-2" d="M161.23,22.4A2.21,2.21,0,0,1,159,24.6h0a2.22,2.22,0,0,1-2.2-2.21l0-4.08a2.2,2.2,0,0,1,2.2-2.2h0a2.21,2.21,0,0,1,2.2,2.21Z"/><rect class="cls-2" x="162.41" y="32.36" width="1.07" height="4.79" transform="translate(127.75 197.6) rotate(-89.84)"/><path class="cls-2" d="M161.89,36.79a2.22,2.22,0,0,1-2.21,2.2h0a2.22,2.22,0,0,1-2.2-2.21V32.7a2.22,2.22,0,0,1,2.21-2.2h0a2.22,2.22,0,0,1,2.2,2.21Z"/><rect class="cls-2" x="162.84" y="47.23" width="1.07" height="4.79" transform="translate(113.31 212.87) rotate(-89.84)"/><path class="cls-2" d="M162.32,51.66a2.2,2.2,0,0,1-2.21,2.2h0a2.19,2.19,0,0,1-2.19-2.21V47.57a2.19,2.19,0,0,1,2.21-2.19h0a2.2,2.2,0,0,1,2.19,2.2Z"/><path class="cls-3" d="M178.35,229.43l-.82-.06Z"/><path class="cls-2" d="M177.52,229.47l0-.21.82.07,0,.21Z"/><path class="cls-2" d="M228.21,284.21c-16.9-25-5.41-25.79-.2-44s-1.86-26.85-13.22-33.53c-7.83-4.61-21.37-6.28-30.37-6.87l.3,31.1a26,26,0,1,1-17.74,0l.47-31.1c-9,.55-22.55,2.14-30.41,6.7-11.4,6.63-18.51,15.2-13.4,33.47s16.59,19.16-.44,44c-17.3,25.25-20.67,30.23-20.44,53.13s17.07,37,32.23,42.76,40.44,5,40.44,5,25.26.93,40.45-4.75,32.13-19.67,32.48-42.58S245.37,309.55,228.21,284.21Z"/><path class="cls-4" d="M166.92,382.47c-7.53-.23-21.58-1.15-31.12-4.78C121.06,372.08,105.23,358.45,105,337c-.21-22.26,2.88-26.77,20-51.83,13.16-19.21,9.93-25.61,5.47-34.45a60,60,0,0,1-4.72-11.46c-4.73-16.93,1.52-24.6,12.36-30.9,7-4,19-5.62,27-6.23l-.41,27.12a28.26,28.26,0,0,0,10.17,54.25h.79A28.26,28.26,0,0,0,187,229.34l-.26-27.12c7.93.66,20,2.3,26.93,6.38,10.8,6.36,17,14.06,12.19,31A60.45,60.45,0,0,1,221.05,251c-4.51,8.83-7.78,15.2,5.28,34.49,17,25.15,20.1,29.68,19.76,51.94-.33,21.42-16.23,34.95-31,40.48-14,5.23-36.84,4.7-39.41,4.62h-.32S171.9,382.62,166.92,382.47Z"/><path class="cls-2" d="M102.64,334.56c.06-20.91,4-26.63,20.47-50.7,6.18-9,9-15.39,9-20.62,0-4.15-1.6-7.36-3.65-11.42a61.32,61.32,0,0,1-4.88-11.89,41.17,41.17,0,0,1-1.69-11.08c0-12.1,7.67-18.17,15.14-22.51,7.74-4.5,20.83-6.13,30.45-6.72h.12l-.47,31.29-.07,0a25.88,25.88,0,1,0,17.66,0l-.07,0v-.08l-.3-31.22h.11c9.62.63,22.71,2.35,30.42,6.88,7.44,4.38,15,10.5,15,22.6a41.23,41.23,0,0,1-1.75,11.06,61.82,61.82,0,0,1-5,11.87c-2.07,4-3.71,7.25-3.72,11.4,0,5.23,2.72,11.6,8.86,20.67,16.36,24.16,20.24,29.9,20.19,50.81,0,.81,0,1.64,0,2.49a42.23,42.23,0,0,1-10.69,27.82,55,55,0,0,1-21.85,14.86c-15,5.62-40.25,4.77-40.5,4.76s-25.46.72-40.46-5a55,55,0,0,1-21.77-15,42.21,42.21,0,0,1-10.54-27.88C102.64,336.2,102.64,335.37,102.64,334.56Zm29.65-71.32c0,5.27-2.79,11.67-9,20.74-16.46,24-20.37,29.74-20.43,50.58,0,.81,0,1.64,0,2.49.22,22.51,16.76,36.79,32.17,42.65,15,5.7,40.14,5,40.39,5s25.43.86,40.43-4.75c15.44-5.78,32.06-20,32.4-42.48.35-22.92-3.17-28.13-20.13-53.18-6.16-9.11-8.9-15.52-8.89-20.79,0-4.21,1.74-7.59,3.74-11.5a62.29,62.29,0,0,0,4.94-11.83,41.13,41.13,0,0,0,1.73-11c0-12-7.52-18.06-14.91-22.41-7.64-4.5-20.62-6.21-30.2-6.85l.29,30.92a26.09,26.09,0,1,1-17.95-.05l.47-30.92c-9.59.59-22.57,2.23-30.24,6.69-7.42,4.31-15,10.33-15,22.32a41.07,41.07,0,0,0,1.67,11,62.16,62.16,0,0,0,4.87,11.85C130.59,255.65,132.3,259,132.29,263.24Z"/><path class="cls-3" d="M179.56,229.58l-.71-.09Z"/><path class="cls-2" d="M178.84,229.59l0-.21.72.1,0,.21Z"/><path class="cls-3" d="M177.11,229.34c-.42,0-.84,0-1.26,0C176.27,229.3,176.69,229.32,177.11,229.34Z"/><path class="cls-2" d="M175.85,229.41v-.21l1.26,0v.22C176.66,229.42,176.25,229.41,175.85,229.41Z"/><path class="cls-3" d="M183.66,230.52l1,.32Z"/><path class="cls-2" d="M183.62,230.62l.07-.2c.3.09.61.2.95.32h0l-.07.2-.94-.32Z"/><path class="cls-3" d="M183.1,230.36l-.6-.18Z"/><path class="cls-2" d="M182.47,230.29l.06-.21.51.15.1,0-.07.21-.09,0Z"/><path class="cls-3" d="M181.94,230l-.62-.14Z"/><path class="cls-2" d="M181.29,230l.05-.21.63.15-.05.21Z"/><path class="cls-3" d="M180.76,229.79l-.66-.12Z"/><path class="cls-2" d="M180.08,229.77l0-.21.66.12,0,.21Z"/><path class="cls-2" d="M176.46,7.14l-12.24,0s1.47,39.41,1.59,47.57,3.67,10.53,3.67,10.53l6.82,0,6.82,0s3.57-2.35,3.73-10.51S188.7,7.17,188.7,7.17Z"/><path class="cls-4" d="M170.39,63c-.74-.89-2.24-3.29-2.31-8.3-.11-6.93-1.19-36.64-1.5-45.27l19.76.06c-.37,8.63-1.61,38.32-1.75,45.25-.1,5-1.62,7.41-2.36,8.29Z"/><path class="cls-5" d="M164.11,7l24.71.07v.11c0,.39-1.68,39.49-1.85,47.56s-3.63,10.5-3.78,10.6l0,0-13.7,0,0,0c-.15-.1-3.61-2.49-3.73-10.62s-1.57-47.17-1.59-47.57Zm24.48.28-24.26-.07c.09,2.34,1.47,39.61,1.59,47.47.11,7.64,3.28,10.19,3.6,10.43l13.57,0c.31-.23,3.5-2.77,3.66-10.4C186.91,46.88,188.49,9.61,188.59,7.28Z"/><rect class="cls-2" x="190.03" y="18.04" width="1.07" height="4.79" transform="translate(169.6 210.95) rotate(-89.84)"/><path class="cls-2" d="M191.61,22.48a2.2,2.2,0,0,0,2.2,2.21h0A2.21,2.21,0,0,0,196,22.5V18.42a2.2,2.2,0,0,0-2.2-2.21h0a2.2,2.2,0,0,0-2.2,2.19Z"/><rect class="cls-2" x="189.29" y="32.43" width="1.07" height="4.79" transform="translate(154.48 224.56) rotate(-89.84)"/><path class="cls-2" d="M190.88,36.87a2.2,2.2,0,0,0,2.19,2.21h0a2.2,2.2,0,0,0,2.21-2.2V32.8a2.21,2.21,0,0,0-2.19-2.21h0a2.2,2.2,0,0,0-2.21,2.2Z"/><rect class="cls-2" x="188.77" y="47.3" width="1.07" height="4.79" transform="translate(139.09 238.87) rotate(-89.84)"/><path class="cls-2" d="M190.36,51.74a2.2,2.2,0,0,0,2.2,2.21h0a2.2,2.2,0,0,0,2.2-2.2V47.67a2.19,2.19,0,0,0-2.19-2.2h0a2.2,2.2,0,0,0-2.21,2.19Z"/><path class="cls-6" d="M183.12,65.25l-6.82,0-6.82,0L167,230.83a26.08,26.08,0,0,1,17.74,0Z"/><path class="cls-2" d="M166.87,231v-.16l2.51-165.72,13.85,0v.11L184.83,231l-.15-.06a26,26,0,0,0-8.83-1.57,25.71,25.71,0,0,0-8.83,1.52Zm2.72-165.67-2.5,165.36a26.25,26.25,0,0,1,17.52,0L183,65.36Z"/><path class="cls-2" d="M178,160.37a2,2,0,1,1-2-2A2,2,0,0,1,178,160.37Z"/><polygon class="cls-2" points="168.39 137.37 176.1 137.39 176.11 136.46 168.41 136.44 168.39 137.37"/><path class="cls-2" d="M173,183.43a2,2,0,1,1-2-2A2,2,0,0,1,173,183.43Z"/><path class="cls-2" d="M173.66,141.78a2,2,0,1,1-2-2A2,2,0,0,1,173.66,141.78Z"/><path class="cls-2" d="M183.54,10.35l-7.09,0-7.08,0a1.86,1.86,0,1,0,0,3.72l7.08,0,7.09,0a1.86,1.86,0,1,0,0-3.72Z"/><path class="cls-2" d="M175.65,304.54l-28.21-.08,0,11.24,9.45,0s.5.86,3.64,2.37a27.57,27.57,0,0,0,9.38,2h5.72l5.73,0a27.25,27.25,0,0,0,9.38-1.91c3.16-1.49,3.66-2.35,3.66-2.35l9.45,0,0-11.24Z"/><path class="cls-2" d="M147.3,315.81l0-11.46,56.62.16,0,11.45-9.5,0c-.17.21-.92,1-3.67,2.34a27.21,27.21,0,0,1-9.43,1.91l-11.45,0a27,27,0,0,1-9.42-2c-2.74-1.31-3.5-2.14-3.66-2.36Zm.25-11.24,0,11,9.4,0,0,.05s.55.86,3.6,2.33a26.85,26.85,0,0,0,9.33,1.95l11.45,0a27.12,27.12,0,0,0,9.34-1.9c3.06-1.45,3.6-2.3,3.61-2.31l0,0h.06l9.34,0,0-11Z"/><polygon class="cls-2" points="175.86 226.72 167.04 226.7 167.04 227.63 175.86 227.66 184.68 227.68 184.68 226.75 175.86 226.72"/><polygon class="cls-2" points="184.63 221.59 175.87 221.57 167.12 221.55 167.11 222.48 175.87 222.5 184.64 222.53 184.63 221.59"/><polygon class="cls-2" points="184.29 186.38 175.97 186.35 167.65 186.33 167.64 187.26 175.97 187.28 184.3 187.31 184.29 186.38"/><polygon class="cls-2" points="184.22 179.22 175.99 179.19 167.76 179.17 167.75 180.1 175.99 180.13 184.23 180.15 184.22 179.22"/><polygon class="cls-2" points="184.35 193.19 175.95 193.17 167.55 193.14 167.53 194.07 175.95 194.1 184.36 194.12 184.35 193.19"/><polygon class="cls-2" points="184.15 171.49 176.01 171.46 167.88 171.44 167.86 172.37 176.01 172.4 184.15 172.42 184.15 171.49"/><polygon class="cls-2" points="184.58 217.08 175.89 217.06 167.19 217.04 167.17 217.97 175.88 217.99 184.59 218.02 184.58 217.08"/><polygon class="cls-2" points="184.07 164.24 176.03 164.22 167.99 164.19 167.97 165.13 176.03 165.15 184.08 165.17 184.07 164.24"/><polygon class="cls-2" points="184.42 199.78 175.93 199.75 167.45 199.73 167.44 200.66 175.93 200.69 184.43 200.71 184.42 199.78"/><polygon class="cls-2" points="184.47 205.56 175.92 205.54 167.36 205.51 167.35 206.44 175.91 206.47 184.48 206.49 184.47 205.56"/><polygon class="cls-2" points="184.53 211.18 175.9 211.16 167.28 211.13 167.26 212.06 175.9 212.09 184.54 212.11 184.53 211.18"/><polygon class="cls-2" points="183.61 116.02 176.16 116 168.72 115.98 168.7 116.92 176.16 116.94 183.62 116.96 183.61 116.02"/><polygon class="cls-2" points="183.99 155.38 176.06 155.36 168.12 155.34 168.11 156.27 176.05 156.29 184 156.31 183.99 155.38"/><polygon class="cls-2" points="183.5 104.69 176.19 104.67 168.89 104.66 168.87 105.59 176.19 105.61 183.51 105.63 183.5 104.69"/><polygon class="cls-2" points="183.27 80.42 176.26 80.41 169.25 80.39 169.24 81.32 176.26 81.34 183.28 81.36 183.27 80.42"/><polygon class="cls-2" points="183.38 92.67 176.23 92.65 169.07 92.63 169.06 93.56 176.22 93.58 183.39 93.6 183.38 92.67"/><polygon class="cls-2" points="183.9 145.82 176.08 145.8 168.27 145.78 168.25 146.71 176.08 146.73 183.91 146.75 183.9 145.82"/><polygon class="cls-2" points="183.71 126.33 176.13 126.31 168.56 126.29 168.55 127.22 176.13 127.24 183.72 127.26 183.71 126.33"/><polygon class="cls-2" points="183.82 137.41 176.1 137.39 176.11 136.46 183.81 136.48 183.82 137.41"/><path class="cls-2" d="M179,183.45a2,2,0,1,0,2-2A2,2,0,0,0,179,183.45Z"/><path class="cls-2" d="M178.53,141.8a2,2,0,1,0,2-2A2,2,0,0,0,178.53,141.8Z"/><path class="cls-2" d="M181.23,121.51a2,2,0,1,1-2-2A2,2,0,0,1,181.23,121.51Z"/><circle class="cls-2" cx="175.78" cy="255.29" r="25.99" transform="translate(-112.52 369.1) rotate(-76.99)"/><circle class="cls-4" cx="175.78" cy="255.29" r="21.45"/><path class="cls-2" d="M149.69,255.22a26.09,26.09,0,1,1,26,26.16A26.12,26.12,0,0,1,149.69,255.22Zm52,.14a25.88,25.88,0,1,0-25.95,25.81A25.91,25.91,0,0,0,201.66,255.36Z"/><path class="cls-2" d="M193.75,255.34a18,18,0,1,1-17.92-18A18,18,0,0,1,193.75,255.34Z"/><path class="cls-4" d="M150.41,255.22a25.37,25.37,0,1,1,25.3,25.43A25.4,25.4,0,0,1,150.41,255.22Zm50.52.14a25.15,25.15,0,1,0-25.22,25.08A25.18,25.18,0,0,0,200.93,255.36Z"/><path class="cls-4" d="M151.24,255.22a24.54,24.54,0,1,1,24.47,24.61A24.57,24.57,0,0,1,151.24,255.22Zm48.86.13a24.32,24.32,0,1,0-24.39,24.26A24.33,24.33,0,0,0,200.1,255.35Z"/><path class="cls-4" d="M152.07,255.22A23.71,23.71,0,1,1,175.72,279,23.74,23.74,0,0,1,152.07,255.22Zm47.21.13a23.5,23.5,0,1,0-23.56,23.43A23.53,23.53,0,0,0,199.28,255.35Z"/><path class="cls-4" d="M152.8,255.22a23,23,0,1,1,22.92,23A23,23,0,0,1,152.8,255.22Zm45.74.13a22.76,22.76,0,1,0-22.82,22.7A22.77,22.77,0,0,0,198.54,255.35Z"/><path class="cls-4" d="M153.52,255.23a22.26,22.26,0,1,1,22.2,22.32A22.28,22.28,0,0,1,153.52,255.23Zm44.31.12a22.05,22.05,0,1,0-22.11,22A22.07,22.07,0,0,0,197.83,255.35Z"/><polygon class="cls-4" points="180.2 34.26 180.41 34.26 180.41 65.36 181.18 312.76 180.97 312.76 180.19 65.36 180.2 34.26"/><polygon class="cls-4" points="177.72 312.67 178.02 65.25 181.79 20.41 182 20.42 178.23 65.25 177.93 312.67 177.72 312.67"/><polygon class="cls-4" points="182.07 49.68 182.29 49.68 184.66 313.12 184.45 313.12 182.07 49.68"/><polygon class="cls-4" points="170.53 312.08 172.87 65.12 172.36 34.24 172.58 34.24 173.08 65.13 170.74 312.08 170.53 312.08"/><polygon class="cls-4" points="170.85 20.39 171.06 20.39 175.23 65.27 174.58 312.06 174.37 312.06 175.02 65.28 170.85 20.39"/><polygon class="cls-4" points="166.57 311.96 170.41 49.65 170.62 49.65 166.79 311.96 166.57 311.96"/><path class="cls-4" d="M167.28,311.7a1.55,1.55,0,1,1-1.53-1.56A1.55,1.55,0,0,1,167.28,311.7Z"/><path class="cls-4" d="M171.33,311.75a1.55,1.55,0,1,1-1.53-1.57A1.54,1.54,0,0,1,171.33,311.75Z"/><path class="cls-4" d="M175.38,311.79a1.55,1.55,0,1,1-1.53-1.56A1.54,1.54,0,0,1,175.38,311.79Z"/><path class="cls-4" d="M180.38,312.07a1.55,1.55,0,1,0,1.57-1.52A1.56,1.56,0,0,0,180.38,312.07Z"/><path class="cls-4" d="M176.34,311.92a1.55,1.55,0,1,0,1.56-1.53A1.54,1.54,0,0,0,176.34,311.92Z"/><path class="cls-4" d="M184.45,312.23A1.55,1.55,0,1,0,186,310.7,1.54,1.54,0,0,0,184.45,312.23Z"/><path class="cls-4" d="M172.29,311.76a1.55,1.55,0,1,0,1.56-1.53A1.55,1.55,0,0,0,172.29,311.76Z"/><path class="cls-2" d="M172.51,19.85a3.12,3.12,0,1,1-3.11-3.12A3.12,3.12,0,0,1,172.51,19.85Z"/><path class="cls-2" d="M173.38,34.78a3.12,3.12,0,1,1-3.11-3.12A3.12,3.12,0,0,1,173.38,34.78Z"/><path class="cls-2" d="M173.62,49.66a3.11,3.11,0,1,1-3.1-3.13A3.11,3.11,0,0,1,173.62,49.66Z"/><path class="cls-2" d="M180.35,19.88a3.11,3.11,0,1,0,3.12-3.11A3.11,3.11,0,0,0,180.35,19.88Z"/><path class="cls-2" d="M179.39,34.8a3.12,3.12,0,1,0,3.13-3.11A3.12,3.12,0,0,0,179.39,34.8Z"/><path class="cls-2" d="M179.07,49.67a3.11,3.11,0,1,0,3.12-3.11A3.1,3.1,0,0,0,179.07,49.67Z"/><path class="cls-7" d="M176.23,281.26c5.24,25.48,49.1,16.89,34.37-10.34-14.93-27.6.64-23.29-1.89-41-2-14.19-12.55-18.55-24.19-19.74l.2,20.65a26,26,0,0,1-8.49,50.38Z"/><path class="cls-2" d="M165.22,202.09l-.42,27.24a28.18,28.18,0,0,0,10.91,54.14h.07a28.18,28.18,0,0,0,11.12-54.08l-.26-27.25c7.93.66,20.06,2.3,27,6.4,10.83,6.38,17.06,14.1,12.22,31A59.4,59.4,0,0,1,221.11,251c-4.5,8.8-7.76,15.16,5.28,34.41,17,25.17,20.11,29.7,19.77,52-.33,21.45-16.25,35-31,40.55-11.27,4.22-28.66,4.67-35.61,4.67-2.46,0-4-.05-4-.05h-.15s-1.17,0-3.09,0c-7.12,0-24.94-.47-36.49-4.87C121,372.13,105.16,358.49,105,337c-.21-22.28,2.88-26.79,20.06-51.87,13.14-19.18,9.92-25.56,5.46-34.38a60.15,60.15,0,0,1-4.71-11.47c-4.75-17,1.52-24.66,12.39-31,7-4.06,19.13-5.64,27.07-6.24m2.23-2.36c-9,.55-22.55,2.14-30.41,6.7-11.4,6.63-18.51,15.2-13.4,33.47s16.59,19.16-.44,44c-17.3,25.25-20.67,30.23-20.44,53.13s17.07,37,32.23,42.76c11.9,4.52,30,5,37.28,5,2,0,3.16,0,3.16,0s1.53.06,4.07.06c7.76,0,24.93-.53,36.38-4.81,15.2-5.69,32.13-19.67,32.48-42.58s-3-27.9-20.15-53.24c-16.9-25-5.41-25.79-.2-44s-1.86-26.85-13.22-33.53c-7.83-4.61-21.37-6.28-30.37-6.87l.3,31.1a26,26,0,0,1-8.94,50.39h-.07A26,26,0,0,1,167,230.83l.47-31.1Z"/></g></svg>