<svg id="Capa_1" data-name="Capa 1" xmlns="http://www.w3.org/2000/svg" xmlns:xlink="http://www.w3.org/1999/xlink" viewBox="0 0 372 372"><defs><style>.cls-1{fill:none;}.cls-2,.cls-27{fill:#3a3c54;}.cls-3{fill:#c8aca5;}.cls-4{isolation:isolate;}.cls-5{clip-path:url(#clip-path);}.cls-6{fill:#9ba9a6;}.cls-7{clip-path:url(#clip-path-2);}.cls-8{clip-path:url(#clip-path-3);}.cls-9{clip-path:url(#clip-path-4);}.cls-10{fill:#586264;}.cls-11{clip-path:url(#clip-path-5);}.cls-12{fill:#454b4e;}.cls-13{clip-path:url(#clip-path-6);}.cls-14{clip-path:url(#clip-path-7);}.cls-15{fill:#7b8380;}.cls-16{clip-path:url(#clip-path-8);}.cls-17{clip-path:url(#clip-path-9);}.cls-18{clip-path:url(#clip-path-10);}.cls-19{clip-path:url(#clip-path-11);}.cls-20{clip-path:url(#clip-path-12);}.cls-21{clip-path:url(#clip-path-13);}.cls-22{clip-path:url(#clip-path-14);}.cls-23{clip-path:url(#clip-path-15);}.cls-24,.cls-26{fill:#fcfaf3;}.cls-24{stroke:#030303;stroke-miterlimit:10;stroke-width:1.88px;}.cls-25{fill:#918792;}.cls-27{opacity:0.47;}.cls-28{clip-path:url(#clip-path-16);}.cls-29{clip-path:url(#clip-path-17);}.cls-30{clip-path:url(#clip-path-18);}.cls-31{fill:#8a8b8b;}.cls-32{fill:#e1dee1;}.cls-33{clip-path:url(#clip-path-19);}.cls-34{clip-path:url(#clip-path-20);}.cls-35{clip-path:url(#clip-path-21);}.cls-36{clip-path:url(#clip-path-22);}.cls-37{clip-path:url(#clip-path-23);}.cls-38{fill:#1a1f24;}.cls-39{clip-path:url(#clip-path-24);}.cls-40{fill:#4f5169;}.cls-41{clip-path:url(#clip-path-25);}.cls-42{clip-path:url(#clip-path-26);}.cls-43{clip-path:url(#clip-path-27);}.cls-44{clip-path:url(#clip-path-28);}.cls-45{clip-path:url(#clip-path-29);}.cls-46{clip-path:url(#clip-path-30);}.cls-47{clip-path:url(#clip-path-31);}.cls-48{clip-path:url(#clip-path-32);}.cls-49{clip-path:url(#clip-path-33);}.cls-50{clip-path:url(#clip-path-34);}.cls-51{clip-path:url(#clip-path-35);}.cls-52{clip-path:url(#clip-path-36);}.cls-53{clip-path:url(#clip-path-37);}.cls-54{clip-path:url(#clip-path-38);}.cls-55{clip-path:url(#clip-path-39);}.cls-56{clip-path:url(#clip-path-40);}.cls-57{clip-path:url(#clip-path-41);}.cls-58{clip-path:url(#clip-path-42);}.cls-59{clip-path:url(#clip-path-43);}.cls-60{clip-path:url(#clip-path-44);}.cls-61{clip-path:url(#clip-path-45);}.cls-62{clip-path:url(#clip-path-46);}.cls-63{clip-path:url(#clip-path-47);}.cls-64{clip-path:url(#clip-path-48);}.cls-65{clip-path:url(#clip-path-49);}.cls-66{clip-path:url(#clip-path-50);}.cls-67{clip-path:url(#clip-path-51);}.cls-68{clip-path:url(#clip-path-52);}.cls-69{clip-path:url(#clip-path-53);}.cls-70{clip-path:url(#clip-path-54);}.cls-71{clip-path:url(#clip-path-55);}.cls-72{clip-path:url(#clip-path-56);}.cls-73{clip-path:url(#clip-path-57);}.cls-74{clip-path:url(#clip-path-58);}.cls-75{clip-path:url(#clip-path-59);}.cls-76{clip-path:url(#clip-path-60);}.cls-77{clip-path:url(#clip-path-61);}.cls-78{clip-path:url(#clip-path-62);}.cls-79{clip-path:url(#clip-path-63);}.cls-80{clip-path:url(#clip-path-64);}.cls-81{clip-path:url(#clip-path-65);}.cls-82{clip-path:url(#clip-path-66);}.cls-83{clip-path:url(#clip-path-67);}.cls-84{clip-path:url(#clip-path-68);}.cls-85{clip-path:url(#clip-path-69);}.cls-86{clip-path:url(#clip-path-70);}.cls-87{clip-path:url(#clip-path-71);}.cls-88{clip-path:url(#clip-path-72);}.cls-89{clip-path:url(#clip-path-73);}.cls-90{clip-path:url(#clip-path-74);}.cls-91{clip-path:url(#clip-path-75);}.cls-92{clip-path:url(#clip-path-76);}.cls-93{clip-path:url(#clip-path-77);}.cls-94{clip-path:url(#clip-path-78);}.cls-95{clip-path:url(#clip-path-79);}.cls-96{clip-path:url(#clip-path-80);}.cls-97{clip-path:url(#clip-path-81);}.cls-98{clip-path:url(#clip-path-82);}.cls-99{clip-path:url(#clip-path-83);}.cls-100{clip-path:url(#clip-path-84);}.cls-101{clip-path:url(#clip-path-85);}.cls-102{clip-path:url(#clip-path-86);}.cls-103{clip-path:url(#clip-path-87);}.cls-104{clip-path:url(#clip-path-88);}.cls-105{clip-path:url(#clip-path-89);}.cls-106{clip-path:url(#clip-path-90);}.cls-107{clip-path:url(#clip-path-91);}.cls-108{clip-path:url(#clip-path-92);}.cls-109{clip-path:url(#clip-path-93);}</style><clipPath id="clip-path"><path class="cls-1" d="M236.92,355.46a4,4,0,0,0,1.79-3.1l2.85,1.65a4,4,0,0,1-1.78,3.11Z"/></clipPath><clipPath id="clip-path-2"><path class="cls-1" d="M236.92,355.46l2.86,1.66a1.26,1.26,0,0,1-1.28.12l-2.86-1.66A1.29,1.29,0,0,0,236.92,355.46Z"/></clipPath><clipPath id="clip-path-3"><path class="cls-1" d="M238.71,352.36a1.28,1.28,0,0,0-.53-1.16l2.86,1.66a1.25,1.25,0,0,1,.52,1.15Z"/></clipPath><clipPath id="clip-path-4"><path class="cls-1" d="M238.18,351.2l2.86,1.66a1.27,1.27,0,0,0-1.27.12l-2.86-1.66A1.27,1.27,0,0,1,238.18,351.2Z"/></clipPath><clipPath id="clip-path-5"><path class="cls-1" d="M238.5,357.24l-2.86-1.66a1.25,1.25,0,0,1-.52-1.15,4,4,0,0,1,1.79-3.11l2.86,1.66a3.92,3.92,0,0,0-1.79,3.11A1.25,1.25,0,0,0,238.5,357.24Z"/></clipPath><clipPath id="clip-path-6"><path class="cls-1" d="M239.54,348.87l2.86,1.66a2.61,2.61,0,0,0-2.64.25l-2.86-1.66A2.61,2.61,0,0,1,239.54,348.87Z"/></clipPath><clipPath id="clip-path-7"><path class="cls-1" d="M237.14,359.57l-2.86-1.66a2.56,2.56,0,0,1-1.08-2.38,8.17,8.17,0,0,1,3.7-6.41l2.86,1.66a8.14,8.14,0,0,0-3.7,6.41A2.57,2.57,0,0,0,237.14,359.57Z"/></clipPath><clipPath id="clip-path-8"><path class="cls-1" d="M100.07,275.73a3.92,3.92,0,0,0,1.79-3.1l2.86,1.65a4,4,0,0,1-1.79,3.11Z"/></clipPath><clipPath id="clip-path-9"><path class="cls-1" d="M100.07,275.73l2.86,1.66a1.29,1.29,0,0,1-1.28.12l-2.85-1.66A1.27,1.27,0,0,0,100.07,275.73Z"/></clipPath><clipPath id="clip-path-10"><path class="cls-1" d="M101.86,272.63a1.27,1.27,0,0,0-.52-1.16l2.85,1.66a1.26,1.26,0,0,1,.53,1.15Z"/></clipPath><clipPath id="clip-path-11"><path class="cls-1" d="M101.34,271.47l2.85,1.66a1.27,1.27,0,0,0-1.27.12l-2.86-1.66A1.29,1.29,0,0,1,101.34,271.47Z"/></clipPath><clipPath id="clip-path-12"><path class="cls-1" d="M101.65,277.51l-2.85-1.66a1.27,1.27,0,0,1-.53-1.15,4,4,0,0,1,1.79-3.11l2.86,1.66a3.92,3.92,0,0,0-1.79,3.11A1.26,1.26,0,0,0,101.65,277.51Z"/></clipPath><clipPath id="clip-path-13"><path class="cls-1" d="M102.7,269.14l2.85,1.66a2.61,2.61,0,0,0-2.64.25l-2.85-1.65A2.59,2.59,0,0,1,102.7,269.14Z"/></clipPath><clipPath id="clip-path-14"><path class="cls-1" d="M100.29,279.84l-2.86-1.66a2.62,2.62,0,0,1-1.08-2.38,8.12,8.12,0,0,1,3.71-6.4l2.85,1.65a8.17,8.17,0,0,0-3.7,6.41A2.57,2.57,0,0,0,100.29,279.84Z"/></clipPath><clipPath id="clip-path-15"><path class="cls-1" d="M305.73,64.47q-.06,26.06-.14,52.13c0,4.14-1.47,8.44-4.9,12.79-15.52,19.69-37.57,26-37.61,41.73l.15-52.14c0-15.77,22.08-22,37.61-41.72C304.27,72.91,305.72,68.62,305.73,64.47Z"/></clipPath><clipPath id="clip-path-16"><path class="cls-2" d="M84.09,163.15l-4.66-2.71a8.58,8.58,0,0,0,3.9-6.76L88,156.39A8.61,8.61,0,0,1,84.09,163.15Z"/></clipPath><clipPath id="clip-path-17"><path class="cls-2" d="M88,141.57l-4.66-2.71a14.58,14.58,0,0,1,6.63-11.47l4.66,2.71A14.58,14.58,0,0,0,88,141.57Z"/></clipPath><clipPath id="clip-path-18"><path class="cls-2" d="M63,184.34l-4.66-2.71c0-5,3.48-11,7.79-13.51l4.66,2.71A17.21,17.21,0,0,0,63,184.34Z"/></clipPath><clipPath id="clip-path-19"><path class="cls-2" d="M241.32,252.87l-4.66-2.74a8.73,8.73,0,0,0,3.9-6.83l4.66,2.73A8.75,8.75,0,0,1,241.32,252.87Z"/></clipPath><clipPath id="clip-path-20"><path class="cls-2" d="M245.18,231.07l-4.66-2.74a14.76,14.76,0,0,1,6.62-11.59l4.66,2.73A14.8,14.8,0,0,0,245.18,231.07Z"/></clipPath><clipPath id="clip-path-21"><path class="cls-2" d="M220.22,274.27l-4.66-2.74c0-5,3.48-11.14,7.79-13.65l4.67,2.74C223.71,263.13,220.21,269.25,220.22,274.27Z"/></clipPath><clipPath id="clip-path-22"><path class="cls-1" d="M231.36,246.92l-.06-1.68a.28.28,0,0,1-.16.26l.05,1.69A.33.33,0,0,0,231.36,246.92Z"/></clipPath><clipPath id="clip-path-23"><path class="cls-1" d="M216,252.05l.06,1.69a.3.3,0,0,0,.19.23l-.05-1.69A.3.3,0,0,1,216,252.05Z"/></clipPath><clipPath id="clip-path-24"><path class="cls-1" d="M218,253.2l.05,1.68a.94.94,0,0,0,.86-.06l0-1.68A1,1,0,0,1,218,253.2Z"/></clipPath><clipPath id="clip-path-25"><path class="cls-1" d="M227.2,244.56l0-1.68a.33.33,0,0,1-.16.26l0,1.68A.28.28,0,0,0,227.2,244.56Z"/></clipPath><clipPath id="clip-path-26"><path class="cls-1" d="M211.81,249.68l.06,1.69c0,.09.06.17.19.23l-.06-1.68A.31.31,0,0,1,211.81,249.68Z"/></clipPath><clipPath id="clip-path-27"><path class="cls-1" d="M213.85,250.83l.06,1.69a.94.94,0,0,0,.86-.06l-.06-1.68A.93.93,0,0,1,213.85,250.83Z"/></clipPath><clipPath id="clip-path-28"><path class="cls-1" d="M202.55,230.42l-.05-1.69a.33.33,0,0,1-.16.26l0,1.69A.28.28,0,0,0,202.55,230.42Z"/></clipPath><clipPath id="clip-path-29"><path class="cls-1" d="M187.16,235.54l.06,1.68c0,.1.07.18.19.24l-.06-1.69A.3.3,0,0,1,187.16,235.54Z"/></clipPath><clipPath id="clip-path-30"><path class="cls-1" d="M189.2,236.69l.06,1.68a.91.91,0,0,0,.86-.06l-.06-1.68A1,1,0,0,1,189.2,236.69Z"/></clipPath><clipPath id="clip-path-31"><path class="cls-1" d="M198.4,228.05l-.06-1.68a.28.28,0,0,1-.16.26l.06,1.68A.29.29,0,0,0,198.4,228.05Z"/></clipPath><clipPath id="clip-path-32"><path class="cls-1" d="M183,233.18l.06,1.68a.33.33,0,0,0,.19.24l-.05-1.69A.33.33,0,0,1,183,233.18Z"/></clipPath><clipPath id="clip-path-33"><path class="cls-1" d="M185.05,234.32l.06,1.69A.91.91,0,0,0,186,236l-.05-1.69A.91.91,0,0,1,185.05,234.32Z"/></clipPath><clipPath id="clip-path-34"><path class="cls-1" d="M219.06,239.64,219,238a.3.3,0,0,1-.16.26l.05,1.69A.3.3,0,0,0,219.06,239.64Z"/></clipPath><clipPath id="clip-path-35"><path class="cls-1" d="M203.67,244.77l.05,1.69a.35.35,0,0,0,.2.23l-.06-1.69A.3.3,0,0,1,203.67,244.77Z"/></clipPath><clipPath id="clip-path-36"><path class="cls-1" d="M205.71,245.92l.06,1.68a.94.94,0,0,0,.86-.06l-.06-1.68A1,1,0,0,1,205.71,245.92Z"/></clipPath><clipPath id="clip-path-37"><path class="cls-1" d="M214.91,237.28l-.06-1.68a.28.28,0,0,1-.16.26l.06,1.68A.29.29,0,0,0,214.91,237.28Z"/></clipPath><clipPath id="clip-path-38"><path class="cls-1" d="M199.51,242.4l.06,1.69a.3.3,0,0,0,.2.23l-.06-1.68A.33.33,0,0,1,199.51,242.4Z"/></clipPath><clipPath id="clip-path-39"><path class="cls-1" d="M201.56,243.55l.06,1.69a.94.94,0,0,0,.85-.06l-.05-1.68A1,1,0,0,1,201.56,243.55Z"/></clipPath><clipPath id="clip-path-40"><path class="cls-1" d="M210.55,234.92l-.06-1.68a.29.29,0,0,1-.16.26l.06,1.68A.29.29,0,0,0,210.55,234.92Z"/></clipPath><clipPath id="clip-path-41"><path class="cls-1" d="M195.16,240.05l.05,1.68a.31.31,0,0,0,.19.24l-.05-1.69A.3.3,0,0,1,195.16,240.05Z"/></clipPath><clipPath id="clip-path-42"><path class="cls-1" d="M197.2,241.2l.06,1.68a.91.91,0,0,0,.85-.06l-.05-1.68A1,1,0,0,1,197.2,241.2Z"/></clipPath><clipPath id="clip-path-43"><path class="cls-1" d="M188.33,221.63l-.06-1.69a.28.28,0,0,1-.16.26l.06,1.69A.32.32,0,0,0,188.33,221.63Z"/></clipPath><clipPath id="clip-path-44"><path class="cls-1" d="M172.94,226.75l.05,1.69a.31.31,0,0,0,.2.23l-.06-1.69C173,226.92,172.94,226.84,172.94,226.75Z"/></clipPath><clipPath id="clip-path-45"><path class="cls-1" d="M175,227.9l.06,1.68a.89.89,0,0,0,.85-.06l0-1.68A1,1,0,0,1,175,227.9Z"/></clipPath><clipPath id="clip-path-46"><path class="cls-1" d="M184.18,219.26l-.06-1.68a.3.3,0,0,1-.16.26l0,1.68A.31.31,0,0,0,184.18,219.26Z"/></clipPath><clipPath id="clip-path-47"><path class="cls-1" d="M168.78,224.38l.06,1.69a.3.3,0,0,0,.19.23l-.05-1.68A.31.31,0,0,1,168.78,224.38Z"/></clipPath><clipPath id="clip-path-48"><path class="cls-1" d="M170.83,225.53l0,1.69a.94.94,0,0,0,.86-.06l-.05-1.68A.94.94,0,0,1,170.83,225.53Z"/></clipPath><clipPath id="clip-path-49"><path class="cls-1" d="M159.53,205.12l-.06-1.69a.3.3,0,0,1-.16.26l.05,1.69A.32.32,0,0,0,159.53,205.12Z"/></clipPath><clipPath id="clip-path-50"><path class="cls-1" d="M144.13,210.24l.06,1.68c0,.1.07.18.19.24l0-1.69A.28.28,0,0,1,144.13,210.24Z"/></clipPath><clipPath id="clip-path-51"><path class="cls-1" d="M146.18,211.39l0,1.68a1,1,0,0,0,.86,0l-.05-1.69A1,1,0,0,1,146.18,211.39Z"/></clipPath><clipPath id="clip-path-52"><path class="cls-1" d="M155.37,202.75l-.05-1.68a.34.34,0,0,1-.16.26l.05,1.68A.28.28,0,0,0,155.37,202.75Z"/></clipPath><clipPath id="clip-path-53"><path class="cls-1" d="M140,207.88l.06,1.68a.29.29,0,0,0,.19.24l-.06-1.69A.32.32,0,0,1,140,207.88Z"/></clipPath><clipPath id="clip-path-54"><path class="cls-1" d="M142,209l.06,1.69a.94.94,0,0,0,.86-.06l-.06-1.68A.93.93,0,0,1,142,209Z"/></clipPath><clipPath id="clip-path-55"><path class="cls-1" d="M176,214.35l-.06-1.69a.3.3,0,0,1-.16.26l.05,1.69A.33.33,0,0,0,176,214.35Z"/></clipPath><clipPath id="clip-path-56"><path class="cls-1" d="M160.64,219.47l.06,1.68a.31.31,0,0,0,.19.24l0-1.69A.3.3,0,0,1,160.64,219.47Z"/></clipPath><clipPath id="clip-path-57"><path class="cls-1" d="M162.69,220.62l.05,1.68a.94.94,0,0,0,.86-.06l0-1.68A1,1,0,0,1,162.69,220.62Z"/></clipPath><clipPath id="clip-path-58"><path class="cls-1" d="M171.88,212l0-1.68a.33.33,0,0,1-.16.26l.05,1.68A.28.28,0,0,0,171.88,212Z"/></clipPath><clipPath id="clip-path-59"><path class="cls-1" d="M156.49,217.1l.06,1.69c0,.09.07.17.19.23l-.06-1.68A.3.3,0,0,1,156.49,217.1Z"/></clipPath><clipPath id="clip-path-60"><path class="cls-1" d="M158.53,218.26l.06,1.68a.94.94,0,0,0,.86-.06l-.06-1.68A1,1,0,0,1,158.53,218.26Z"/></clipPath><clipPath id="clip-path-61"><path class="cls-1" d="M167.52,209.62l-.05-1.68a.3.3,0,0,1-.16.26l.05,1.68A.28.28,0,0,0,167.52,209.62Z"/></clipPath><clipPath id="clip-path-62"><path class="cls-1" d="M152.13,214.75l.06,1.68c0,.09.07.17.19.23l-.06-1.68A.32.32,0,0,1,152.13,214.75Z"/></clipPath><clipPath id="clip-path-63"><path class="cls-1" d="M154.17,215.89l.06,1.69a.94.94,0,0,0,.86-.06l-.06-1.68A.93.93,0,0,1,154.17,215.89Z"/></clipPath><clipPath id="clip-path-64"><path class="cls-1" d="M145.3,197l-.05-1.69a.32.32,0,0,1-.16.27l0,1.68A.28.28,0,0,0,145.3,197Z"/></clipPath><clipPath id="clip-path-65"><path class="cls-1" d="M129.91,202.16l.06,1.69c0,.09.07.17.19.23l-.06-1.69A.29.29,0,0,1,129.91,202.16Z"/></clipPath><clipPath id="clip-path-66"><path class="cls-1" d="M132,203.31,132,205a.94.94,0,0,0,.86-.05l-.06-1.69A1,1,0,0,1,132,203.31Z"/></clipPath><clipPath id="clip-path-67"><path class="cls-1" d="M141.15,194.68l-.06-1.69a.28.28,0,0,1-.16.26l.06,1.69A.32.32,0,0,0,141.15,194.68Z"/></clipPath><clipPath id="clip-path-68"><path class="cls-1" d="M125.76,199.8l0,1.68a.31.31,0,0,0,.19.24l0-1.69A.3.3,0,0,1,125.76,199.8Z"/></clipPath><clipPath id="clip-path-69"><path class="cls-1" d="M127.8,201l.06,1.68a.91.91,0,0,0,.85,0l-.05-1.69A1,1,0,0,1,127.8,201Z"/></clipPath><clipPath id="clip-path-70"><path class="cls-1" d="M116.5,180.53l-.06-1.69a.28.28,0,0,1-.16.26l.06,1.69A.3.3,0,0,0,116.5,180.53Z"/></clipPath><clipPath id="clip-path-71"><path class="cls-1" d="M101.11,185.65l0,1.69a.3.3,0,0,0,.2.23l-.06-1.69A.27.27,0,0,1,101.11,185.65Z"/></clipPath><clipPath id="clip-path-72"><path class="cls-1" d="M103.15,186.8l.06,1.68a.91.91,0,0,0,.85,0l0-1.69A.94.94,0,0,1,103.15,186.8Z"/></clipPath><clipPath id="clip-path-73"><path class="cls-1" d="M112.35,178.16l-.06-1.68a.3.3,0,0,1-.16.26l.05,1.68A.31.31,0,0,0,112.35,178.16Z"/></clipPath><clipPath id="clip-path-74"><path class="cls-1" d="M97,183.29,97,185a.29.29,0,0,0,.19.24l0-1.69A.28.28,0,0,1,97,183.29Z"/></clipPath><clipPath id="clip-path-75"><path class="cls-1" d="M99,184.43l0,1.69a.91.91,0,0,0,.86-.06l0-1.68A.94.94,0,0,1,99,184.43Z"/></clipPath><clipPath id="clip-path-76"><path class="cls-1" d="M133,189.76l-.06-1.69a.3.3,0,0,1-.16.27l.06,1.68A.3.3,0,0,0,133,189.76Z"/></clipPath><clipPath id="clip-path-77"><path class="cls-1" d="M117.62,194.88l0,1.69a.31.31,0,0,0,.2.23l-.06-1.69A.27.27,0,0,1,117.62,194.88Z"/></clipPath><clipPath id="clip-path-78"><path class="cls-1" d="M119.66,196l.06,1.68a.91.91,0,0,0,.85-.05l0-1.69A1,1,0,0,1,119.66,196Z"/></clipPath><clipPath id="clip-path-79"><path class="cls-1" d="M128.86,187.4l-.06-1.69a.3.3,0,0,1-.16.26l.05,1.69A.33.33,0,0,0,128.86,187.4Z"/></clipPath><clipPath id="clip-path-80"><path class="cls-1" d="M113.46,192.52l.06,1.68a.29.29,0,0,0,.19.24l-.06-1.69A.3.3,0,0,1,113.46,192.52Z"/></clipPath><clipPath id="clip-path-81"><path class="cls-1" d="M115.51,193.66l0,1.69a.91.91,0,0,0,.86-.06l0-1.68A.94.94,0,0,1,115.51,193.66Z"/></clipPath><clipPath id="clip-path-82"><path class="cls-1" d="M124.5,185l-.06-1.69a.3.3,0,0,1-.16.26l0,1.69A.33.33,0,0,0,124.5,185Z"/></clipPath><clipPath id="clip-path-83"><path class="cls-1" d="M109.1,190.16l.06,1.68a.31.31,0,0,0,.19.24l0-1.69A.3.3,0,0,1,109.1,190.16Z"/></clipPath><clipPath id="clip-path-84"><path class="cls-1" d="M111.15,191.31l0,1.68a.94.94,0,0,0,.86-.06l0-1.68A1,1,0,0,1,111.15,191.31Z"/></clipPath><clipPath id="clip-path-85"><path class="cls-1" d="M103.2,172.53l0-1.68a.3.3,0,0,1-.16.26l.05,1.68A.28.28,0,0,0,103.2,172.53Z"/></clipPath><clipPath id="clip-path-86"><path class="cls-1" d="M87.81,177.66l.06,1.68c0,.09.07.17.19.24L88,177.89A.32.32,0,0,1,87.81,177.66Z"/></clipPath><clipPath id="clip-path-87"><path class="cls-1" d="M89.86,178.81l0,1.68a.94.94,0,0,0,.86-.06l-.06-1.68A.94.94,0,0,1,89.86,178.81Z"/></clipPath><clipPath id="clip-path-88"><path class="cls-1" d="M99.05,170.17l0-1.69a.33.33,0,0,1-.17.27l.06,1.68A.3.3,0,0,0,99.05,170.17Z"/></clipPath><clipPath id="clip-path-89"><path class="cls-1" d="M83.66,175.29l0,1.69a.3.3,0,0,0,.2.23l-.06-1.68A.31.31,0,0,1,83.66,175.29Z"/></clipPath><clipPath id="clip-path-90"><path class="cls-1" d="M85.7,176.44l.06,1.68a.94.94,0,0,0,.86-.05l-.06-1.69A1,1,0,0,1,85.7,176.44Z"/></clipPath><clipPath id="clip-path-91"><path class="cls-1" d="M94.69,167.81l0-1.69a.31.31,0,0,1-.17.26l.06,1.69A.29.29,0,0,0,94.69,167.81Z"/></clipPath><clipPath id="clip-path-92"><path class="cls-1" d="M79.3,172.93l0,1.69a.3.3,0,0,0,.2.23l-.06-1.68A.29.29,0,0,1,79.3,172.93Z"/></clipPath><clipPath id="clip-path-93"><path class="cls-1" d="M81.34,174.08l.06,1.69a.94.94,0,0,0,.85-.06l0-1.69A.94.94,0,0,1,81.34,174.08Z"/></clipPath></defs><title>Mesa de trabajo 1</title><rect class="cls-3" x="88.19" y="21.43" width="216.62" height="269.41"/><g class="cls-4"><g class="cls-4"><g class="cls-5"><g class="cls-4"><path class="cls-6" d="M239.78,357.12l-2.86-1.66a4,4,0,0,0,1.79-3.1,1.28,1.28,0,0,0-.53-1.16l2.86,1.66a1.25,1.25,0,0,1,.52,1.15,4,4,0,0,1-1.78,3.11Z"/></g></g></g><g class="cls-4"><g class="cls-7"><g class="cls-4"><path class="cls-6" d="M238.5,357.24l-2.86-1.66a1.29,1.29,0,0,0,1.28-.12l2.86,1.66a1.26,1.26,0,0,1-1.28.12Z"/></g></g></g><g class="cls-4"><g class="cls-8"><g class="cls-4"><path class="cls-6" d="M239.78,357.12l-2.86-1.66a4,4,0,0,0,1.79-3.1,1.28,1.28,0,0,0-.53-1.16l2.86,1.66a1.25,1.25,0,0,1,.52,1.15,4,4,0,0,1-1.78,3.11Z"/></g></g></g><g class="cls-4"><g class="cls-9"><g class="cls-4"><path class="cls-10" d="M239.77,353l-2.86-1.66a1.27,1.27,0,0,1,1.27-.12l2.86,1.66a1.27,1.27,0,0,0-1.27.12Z"/></g></g></g><g class="cls-4"><g class="cls-11"><g class="cls-4"><path class="cls-10" d="M238.5,357.24l-2.86-1.66a1.25,1.25,0,0,1-.52-1.15,4,4,0,0,1,1.79-3.11l2.86,1.66a3.92,3.92,0,0,0-1.79,3.11,1.25,1.25,0,0,0,.52,1.15Z"/></g></g></g><path class="cls-12" d="M239.77,353c1-.56,1.79-.11,1.79,1a4,4,0,0,1-1.78,3.11c-1,.57-1.8.1-1.8-1A3.92,3.92,0,0,1,239.77,353Z"/><g class="cls-4"><g class="cls-13"><g class="cls-4"><path class="cls-6" d="M239.76,350.78l-2.86-1.66a2.61,2.61,0,0,1,2.64-.25l2.86,1.66a2.61,2.61,0,0,0-2.64.25Z"/></g></g></g><g class="cls-4"><g class="cls-14"><g class="cls-4"><path class="cls-6" d="M237.14,359.57l-2.86-1.66a2.56,2.56,0,0,1-1.08-2.38,8.17,8.17,0,0,1,3.7-6.41l2.86,1.66a8.14,8.14,0,0,0-3.7,6.41,2.57,2.57,0,0,0,1.08,2.38Z"/></g></g></g><path class="cls-15" d="M239.76,350.78c2.05-1.18,3.72-.23,3.72,2.13a8.13,8.13,0,0,1-3.7,6.4c-2.05,1.19-3.72.24-3.72-2.12A8.14,8.14,0,0,1,239.76,350.78Zm0,6.34a4,4,0,0,0,1.78-3.11c0-1.14-.81-1.59-1.79-1a3.92,3.92,0,0,0-1.79,3.11c0,1.13.8,1.6,1.8,1Z"/></g><path class="cls-2" d="M299.73,112.08l-6.4-1.92v-.22l-.37.11-.39-.11v.22l-6.39,1.92,4.56,84.4s.36,1.7,1.83,1.77v0h.76v0c1.46-.07,1.65-1.77,1.65-1.77Z"/><path class="cls-2" d="M247.51,253.25l-10.79-1.83v-.27l-.44.13-.45-.13v.27l-7.43,2.22,5.23,97s.6,3.56,4,3.56c4.05,0,4.4-2.9,4.4-2.9Z"/><g class="cls-4"><g class="cls-4"><g class="cls-16"><g class="cls-4"><path class="cls-6" d="M102.93,277.39l-2.86-1.66a3.92,3.92,0,0,0,1.79-3.1,1.27,1.27,0,0,0-.52-1.16l2.85,1.66a1.26,1.26,0,0,1,.53,1.15,4,4,0,0,1-1.79,3.11Z"/></g></g></g><g class="cls-4"><g class="cls-17"><g class="cls-4"><path class="cls-6" d="M101.65,277.51l-2.85-1.66a1.27,1.27,0,0,0,1.27-.12l2.86,1.66a1.29,1.29,0,0,1-1.28.12Z"/></g></g></g><g class="cls-4"><g class="cls-18"><g class="cls-4"><path class="cls-6" d="M102.93,277.39l-2.86-1.66a3.92,3.92,0,0,0,1.79-3.1,1.27,1.27,0,0,0-.52-1.16l2.85,1.66a1.26,1.26,0,0,1,.53,1.15,4,4,0,0,1-1.79,3.11Z"/></g></g></g><g class="cls-4"><g class="cls-19"><g class="cls-4"><path class="cls-10" d="M102.92,273.25l-2.86-1.66a1.29,1.29,0,0,1,1.28-.12l2.85,1.66a1.27,1.27,0,0,0-1.27.12Z"/></g></g></g><g class="cls-4"><g class="cls-20"><g class="cls-4"><path class="cls-10" d="M101.65,277.51l-2.85-1.66a1.27,1.27,0,0,1-.53-1.15,4,4,0,0,1,1.79-3.11l2.86,1.66a3.92,3.92,0,0,0-1.79,3.11,1.26,1.26,0,0,0,.52,1.15Z"/></g></g></g><path class="cls-12" d="M102.92,273.25c1-.56,1.79-.11,1.8,1a4,4,0,0,1-1.79,3.11c-1,.57-1.8.1-1.8-1A3.92,3.92,0,0,1,102.92,273.25Z"/><g class="cls-4"><g class="cls-21"><g class="cls-4"><path class="cls-6" d="M102.91,271.05l-2.85-1.65a2.59,2.59,0,0,1,2.64-.26l2.85,1.66a2.61,2.61,0,0,0-2.64.25Z"/></g></g></g><g class="cls-4"><g class="cls-22"><g class="cls-4"><path class="cls-6" d="M100.29,279.84l-2.86-1.66a2.62,2.62,0,0,1-1.08-2.38,8.12,8.12,0,0,1,3.71-6.4l2.85,1.65a8.17,8.17,0,0,0-3.7,6.41,2.57,2.57,0,0,0,1.08,2.38Z"/></g></g></g><path class="cls-15" d="M102.91,271.05c2-1.18,3.72-.23,3.73,2.13a8.14,8.14,0,0,1-3.71,6.4c-2.05,1.19-3.72.24-3.72-2.12A8.17,8.17,0,0,1,102.91,271.05Zm0,6.34a4,4,0,0,0,1.79-3.11c0-1.14-.81-1.59-1.8-1a3.92,3.92,0,0,0-1.79,3.11c0,1.13.8,1.6,1.8,1Z"/></g><path class="cls-2" d="M110.67,173.52l-10.8-1.83v-.27l-.44.13-.44-.13v.27l-7.43,2.22,5.22,97s.6,3.58,4,3.58c4.06,0,4.4-2.91,4.4-2.91Z"/><g class="cls-4"><g class="cls-23"><path class="cls-24" d="M305.73,64.47l-.14,52.13c0,4.14-1.47,8.44-4.9,12.79-15.52,19.69-37.57,26-37.61,41.73l.15-52.14c0-15.77,22.08-22,37.61-41.72,3.43-4.35,4.88-8.64,4.89-12.79Z"/></g></g><polygon class="cls-2" points="251.25 219.7 251.1 271.83 89.45 178.5 89.62 126.69 251.25 219.7"/><path class="cls-2" d="M275.7,29.94c15.46,8.92,40.73,27.56,25.14,47.32-17.09,21.66-42,27.07-36.93,46.77,5.73,22.12,38.09,26.14,38,51.51,0,10-15,20.54-32.09,31.85L251.25,219.7l-161.63-93L265.11,24.44A118,118,0,0,1,275.7,29.94Z"/><path class="cls-2" d="M272.89,32.48c14.52,8.38,38.26,25.9,23.61,44.46-16,20.34-41.35,28.45-36.61,47,6.56,25.62,42.69,28.7,37.95,52.39-1.34,6.7-4.41,9.51-19,20.08l-29.9,19.49L96.14,126.11l166.8-98.8C263.15,27.41,267.2,29.2,272.89,32.48Z"/><g class="cls-4"><polygon class="cls-2" points="220.19 275.48 220.13 289.63 58.27 196.17 58.33 182.02 220.19 275.48"/><polygon class="cls-25" points="251.11 257.51 220.19 275.48 58.33 182.02 89.24 164.06 251.11 257.51"/></g><path class="cls-26" d="M263.32,108.55c4.81-6.49,13.27-12.33,21.63-19.69.59-.69,1.17-1.39,1.73-2.11,14.65-18.56-9.09-36.07-23.61-44.45-5.69-3.28-9.74-5.07-9.95-5.17L98,127.22l150.9,88.65s32.47-21.16,34.21-22.61,4.34-2.35,5.36-8.18c3-17.43-14-23.27-25.73-34.51-3.28-3.13-3.43-8.63-3.43-8.63V123.35C259.61,114.13,261.91,109.74,263.32,108.55Z"/><path class="cls-27" d="M89.62,126.69,201.9,144.57l94.4-82.9s-43.06-.51-44.33-7c-2.23-11.5,35.3-33.35,18.13-39.1s-26.85,2.16-26.85,2.16Z"/><path class="cls-2" d="M201.45,102.23l51.17,111a2.09,2.09,0,0,0,.17.14l6.5-4.25Z"/><path class="cls-2" d="M89.62,126.69,237,97.76l54.14-47.59s-29.7.06-31-6.45c-2.24-11.5,27.59-23.7,10.44-29.45s-26.86,2.16-26.86,2.16Z"/><g class="cls-4"><g class="cls-4"><path class="cls-2" d="M84.09,163.15l-4.66-2.71a8.58,8.58,0,0,0,3.9-6.76L88,156.39A8.61,8.61,0,0,1,84.09,163.15Z"/><g class="cls-28"><g class="cls-4"><path class="cls-2" d="M84.09,163.15l-4.66-2.71a8.58,8.58,0,0,0,3.9-6.76L88,156.39a8.61,8.61,0,0,1-3.91,6.76Z"/></g></g></g><polygon class="cls-2" points="88 156.39 83.33 153.68 83.29 138.86 87.95 141.57 88 156.39"/><polygon class="cls-2" points="63.01 185.83 58.34 183.12 58.34 181.63 63 184.34 63.01 185.83"/><polygon class="cls-2" points="70.79 170.83 66.13 168.12 79.43 160.44 84.09 163.15 70.79 170.83"/><g class="cls-4"><path class="cls-2" d="M88,141.57l-4.66-2.71a14.58,14.58,0,0,1,6.63-11.47l4.66,2.71A14.58,14.58,0,0,0,88,141.57Z"/><g class="cls-29"><g class="cls-4"><path class="cls-2" d="M88,141.57l-4.66-2.71a14.58,14.58,0,0,1,6.63-11.47l4.66,2.71A14.58,14.58,0,0,0,88,141.57Z"/></g></g></g><g class="cls-4"><path class="cls-2" d="M63,184.34l-4.66-2.71c0-5,3.48-11,7.79-13.51l4.66,2.71A17.21,17.21,0,0,0,63,184.34Z"/><g class="cls-30"><g class="cls-4"><path class="cls-2" d="M63,184.34l-4.66-2.71c0-5,3.48-11,7.79-13.51l4.66,2.71A17.21,17.21,0,0,0,63,184.34Z"/></g></g></g><path class="cls-2" d="M94.58,130.1l.1,37.44L63,185.83v-1.49a17.21,17.21,0,0,1,7.79-13.51l13.3-7.68A8.61,8.61,0,0,0,88,156.39l0-14.82A14.58,14.58,0,0,1,94.58,130.1Z"/></g><g class="cls-4"><polygon class="cls-31" points="244.87 254.24 244.83 259.48 222.84 272.26 222.87 267.03 244.87 254.24"/><polygon class="cls-32" points="222.87 267.03 222.84 272.26 69.78 184.49 69.82 179.25 222.87 267.03"/><polygon class="cls-26" points="245.85 254.14 222.87 267.03 69.82 179.25 92.8 166.37 245.85 254.14"/></g><g class="cls-4"><g class="cls-4"><path class="cls-2" d="M241.32,252.87l-4.66-2.74a8.73,8.73,0,0,0,3.9-6.83l4.66,2.73A8.75,8.75,0,0,1,241.32,252.87Z"/><g class="cls-33"><g class="cls-4"><path class="cls-2" d="M241.32,252.87l-4.66-2.74a8.73,8.73,0,0,0,3.9-6.83l4.66,2.73a8.75,8.75,0,0,1-3.9,6.84Z"/></g></g></g><polygon class="cls-2" points="245.22 246.03 240.56 243.3 240.52 228.33 245.18 231.07 245.22 246.03"/><polygon class="cls-26" points="220.23 275.77 215.57 273.03 215.56 271.53 220.22 274.27 220.23 275.77"/><polygon class="cls-2" points="215.56 271.53 215.57 273.03 220.23 275.77 220.22 274.27 215.56 271.53 215.56 271.53"/><polygon class="cls-2" points="228.02 260.62 223.35 257.88 236.66 250.13 241.32 252.87 228.02 260.62"/><g class="cls-4"><path class="cls-2" d="M245.18,231.07l-4.66-2.74a14.76,14.76,0,0,1,6.62-11.59l4.66,2.73A14.8,14.8,0,0,0,245.18,231.07Z"/><g class="cls-34"><g class="cls-4"><path class="cls-2" d="M245.18,231.07l-4.66-2.74a14.76,14.76,0,0,1,6.62-11.59l4.66,2.73a14.8,14.8,0,0,0-6.62,11.6Z"/></g></g></g><g class="cls-4"><path class="cls-2" d="M220.22,274.27l-4.66-2.74c0-5,3.48-11.14,7.79-13.65l4.67,2.74C223.71,263.13,220.21,269.25,220.22,274.27Z"/><g class="cls-35"><g class="cls-4"><path class="cls-2" d="M220.22,274.27l-4.66-2.74c0-5,3.48-11.14,7.79-13.65l4.67,2.74c-4.31,2.51-7.81,8.63-7.8,13.65Z"/></g></g></g><path class="cls-26" d="M222,276.54h0l0-1.09v-1.19c0-4.35,3.14-9.87,6.88-12.05l13.3-7.76a10.59,10.59,0,0,0,4.82-8.42l-.05-15a13,13,0,0,1,5.27-9.71l.8-.55v-.14l15.55-10.75,0,.24,4.62-3.28c10.56-7.49,21.37-15.15,26.87-22.41l-.12,43.2c0,8-13,21.05-31.79,32.19l-2.76,1.57L252.38,269l-2.2,1.25L222,286.44Z"/><path class="cls-2" d="M298.25,189.45l-.11,38.21c0,7-12.48,19.43-29.59,29.82l-4,2.34-9.74,5.64v0l-5.5,3.17-25.44,14.65,0-5.64.06,0v-3.32a13.76,13.76,0,0,1,6-10.46L243.18,256a12.45,12.45,0,0,0,5.72-10l-.05-15a11.35,11.35,0,0,1,4.46-8.19l1.61-1.09v-.15l11.59-8,0,.3,6.39-4.54,1.41-1c9.15-6.48,18-12.76,24-18.92M302,175.54c0,9-16.55,20.43-31.21,30.84l0-.18-19.52,13.5v.13a14.9,14.9,0,0,0-6.07,11.24l0,15a8.75,8.75,0,0,1-3.9,6.84L228,260.62c-4.31,2.51-7.81,8.63-7.8,13.65v1.18l0,0-.06,14.15,31-17.83v0L266.35,263v0c19-10.72,35.44-25.35,35.46-35.37l.15-52.12Z"/></g><g class="cls-4"><g class="cls-4"><g class="cls-36"><g class="cls-4"><path class="cls-2" d="M231.14,245.5l.05,1.69a.33.33,0,0,0,.17-.27l-.06-1.68a.28.28,0,0,1-.16.26Z"/></g></g></g><g class="cls-4"><g class="cls-37"><g class="cls-4"><path class="cls-2" d="M216,252.05l.06,1.69a.3.3,0,0,0,.19.23l-.05-1.69a.3.3,0,0,1-.2-.23Z"/></g></g></g><polygon class="cls-2" points="216.16 252.28 216.21 253.97 218.06 254.88 218.01 253.2 216.16 252.28"/><polygon class="cls-38" points="218.87 253.14 218.92 254.82 231.19 247.19 231.14 245.5 218.87 253.14"/><g class="cls-4"><g class="cls-39"><g class="cls-4"><path class="cls-2" d="M218,253.2l.05,1.68a.94.94,0,0,0,.86-.06l0-1.68a1,1,0,0,1-.86.06Z"/></g></g></g><path class="cls-40" d="M216.13,251.79c-.23.15-.22.37,0,.49l1.85.92a1,1,0,0,0,.86-.06l12.27-7.64c.23-.15.21-.37,0-.5l-1.85-.91a.94.94,0,0,0-.86.06Z"/></g><g class="cls-4"><g class="cls-4"><g class="cls-41"><g class="cls-4"><path class="cls-2" d="M227,243.14l0,1.68a.28.28,0,0,0,.16-.26l0-1.68a.33.33,0,0,1-.16.26Z"/></g></g></g><g class="cls-4"><g class="cls-42"><g class="cls-4"><path class="cls-2" d="M211.81,249.68l.06,1.69c0,.09.06.17.19.23l-.06-1.68a.31.31,0,0,1-.19-.24Z"/></g></g></g><polygon class="cls-2" points="212 249.92 212.06 251.6 213.91 252.52 213.85 250.83 212 249.92"/><polygon class="cls-38" points="214.71 250.78 214.77 252.46 227.04 244.82 226.99 243.14 214.71 250.78"/><g class="cls-4"><g class="cls-43"><g class="cls-4"><path class="cls-2" d="M213.85,250.83l.06,1.69a.94.94,0,0,0,.86-.06l-.06-1.68a.93.93,0,0,1-.86.05Z"/></g></g></g><path class="cls-40" d="M212,249.42c-.23.16-.21.38,0,.5l1.85.91a.93.93,0,0,0,.86-.05L227,243.14c.22-.16.21-.38,0-.5l-1.85-.91a.94.94,0,0,0-.86.06Z"/></g><g class="cls-4"><g class="cls-4"><g class="cls-44"><g class="cls-4"><path class="cls-2" d="M202.34,229l0,1.69a.28.28,0,0,0,.16-.26l-.05-1.69a.33.33,0,0,1-.16.26Z"/></g></g></g><g class="cls-4"><g class="cls-45"><g class="cls-4"><path class="cls-2" d="M187.16,235.54l.06,1.68c0,.1.07.18.19.24l-.06-1.69a.3.3,0,0,1-.19-.23Z"/></g></g></g><polygon class="cls-2" points="187.35 235.77 187.41 237.46 189.26 238.37 189.2 236.69 187.35 235.77"/><polygon class="cls-38" points="190.06 236.63 190.12 238.31 202.39 230.68 202.34 228.99 190.06 236.63"/><g class="cls-4"><g class="cls-46"><g class="cls-4"><path class="cls-2" d="M189.2,236.69l.06,1.68a.91.91,0,0,0,.86-.06l-.06-1.68a1,1,0,0,1-.86.06Z"/></g></g></g><path class="cls-40" d="M187.32,235.28a.26.26,0,0,0,0,.49l1.85.92a1,1,0,0,0,.86-.06L202.34,229a.27.27,0,0,0,0-.5l-1.86-.91a.94.94,0,0,0-.86.06Z"/></g><g class="cls-4"><g class="cls-4"><g class="cls-47"><g class="cls-4"><path class="cls-2" d="M198.18,226.63l.06,1.68a.29.29,0,0,0,.16-.26l-.06-1.68a.28.28,0,0,1-.16.26Z"/></g></g></g><g class="cls-4"><g class="cls-48"><g class="cls-4"><path class="cls-2" d="M183,233.18l.06,1.68a.33.33,0,0,0,.19.24l-.05-1.69a.33.33,0,0,1-.2-.23Z"/></g></g></g><polygon class="cls-2" points="183.2 233.41 183.25 235.1 185.11 236.01 185.05 234.32 183.2 233.41"/><polygon class="cls-38" points="185.91 234.26 185.96 235.95 198.24 228.31 198.18 226.63 185.91 234.26"/><g class="cls-4"><g class="cls-49"><g class="cls-4"><path class="cls-2" d="M185.05,234.32l.06,1.69A.91.91,0,0,0,186,236l-.05-1.69a.91.91,0,0,1-.86.06Z"/></g></g></g><path class="cls-40" d="M183.17,232.91a.26.26,0,0,0,0,.5l1.85.91a.91.91,0,0,0,.86-.06l12.27-7.63a.26.26,0,0,0,0-.5l-1.85-.91a.91.91,0,0,0-.86.06Z"/></g><g class="cls-4"><g class="cls-4"><g class="cls-50"><g class="cls-4"><path class="cls-2" d="M218.85,238.22l.05,1.69a.3.3,0,0,0,.16-.27L219,238a.3.3,0,0,1-.16.26Z"/></g></g></g><g class="cls-4"><g class="cls-51"><g class="cls-4"><path class="cls-2" d="M203.67,244.77l.05,1.69a.35.35,0,0,0,.2.23l-.06-1.69a.3.3,0,0,1-.19-.23Z"/></g></g></g><polygon class="cls-2" points="203.86 245 203.92 246.69 205.77 247.6 205.71 245.92 203.86 245"/><polygon class="cls-38" points="206.57 245.86 206.63 247.54 218.9 239.91 218.85 238.22 206.57 245.86"/><g class="cls-4"><g class="cls-52"><g class="cls-4"><path class="cls-2" d="M205.71,245.92l.06,1.68a.94.94,0,0,0,.86-.06l-.06-1.68a1,1,0,0,1-.86.06Z"/></g></g></g><path class="cls-40" d="M203.83,244.51a.26.26,0,0,0,0,.49l1.85.92a1,1,0,0,0,.86-.06l12.28-7.64a.27.27,0,0,0,0-.5l-1.86-.91a.94.94,0,0,0-.86.06Z"/></g><g class="cls-4"><g class="cls-4"><g class="cls-53"><g class="cls-4"><path class="cls-2" d="M214.69,235.86l.06,1.68a.29.29,0,0,0,.16-.26l-.06-1.68a.28.28,0,0,1-.16.26Z"/></g></g></g><g class="cls-4"><g class="cls-54"><g class="cls-4"><path class="cls-2" d="M199.51,242.4l.06,1.69a.3.3,0,0,0,.2.23l-.06-1.68a.33.33,0,0,1-.2-.24Z"/></g></g></g><polygon class="cls-2" points="199.71 242.64 199.76 244.32 201.62 245.24 201.56 243.55 199.71 242.64"/><polygon class="cls-38" points="202.42 243.5 202.47 245.18 214.75 237.54 214.69 235.86 202.42 243.5"/><g class="cls-4"><g class="cls-55"><g class="cls-4"><path class="cls-2" d="M201.56,243.55l.06,1.69a.94.94,0,0,0,.85-.06l-.05-1.68a1,1,0,0,1-.86.05Z"/></g></g></g><path class="cls-40" d="M199.68,242.14c-.23.16-.22.38,0,.5l1.85.91a1,1,0,0,0,.86-.05l12.27-7.64c.23-.16.22-.38,0-.5l-1.85-.91a.94.94,0,0,0-.86.06Z"/></g><g class="cls-4"><g class="cls-4"><g class="cls-56"><g class="cls-4"><path class="cls-2" d="M210.33,233.5l.06,1.68a.29.29,0,0,0,.16-.26l-.06-1.68a.29.29,0,0,1-.16.26Z"/></g></g></g><g class="cls-4"><g class="cls-57"><g class="cls-4"><path class="cls-2" d="M195.16,240.05l.05,1.68a.31.31,0,0,0,.19.24l-.05-1.69a.3.3,0,0,1-.19-.23Z"/></g></g></g><polygon class="cls-2" points="195.35 240.28 195.4 241.97 197.26 242.88 197.2 241.19 195.35 240.28"/><polygon class="cls-38" points="198.06 241.14 198.11 242.82 210.39 235.19 210.33 233.5 198.06 241.14"/><g class="cls-4"><g class="cls-58"><g class="cls-4"><path class="cls-2" d="M197.2,241.2l.06,1.68a.91.91,0,0,0,.85-.06l-.05-1.68a1,1,0,0,1-.86.06Z"/></g></g></g><path class="cls-40" d="M195.32,239.78c-.23.16-.22.38,0,.5l1.85.92a1,1,0,0,0,.86-.06l12.27-7.64c.23-.15.22-.37,0-.5l-1.85-.91a.91.91,0,0,0-.86.06Z"/></g><g class="cls-4"><g class="cls-4"><g class="cls-59"><g class="cls-4"><path class="cls-2" d="M188.11,220.2l.06,1.69a.32.32,0,0,0,.16-.26l-.06-1.69a.28.28,0,0,1-.16.26Z"/></g></g></g><g class="cls-4"><g class="cls-60"><g class="cls-4"><path class="cls-2" d="M172.94,226.75l.05,1.69a.31.31,0,0,0,.2.23l-.06-1.69c-.12-.06-.19-.14-.19-.23Z"/></g></g></g><polygon class="cls-2" points="173.13 226.98 173.19 228.67 175.04 229.58 174.98 227.9 173.13 226.98"/><polygon class="cls-38" points="175.84 227.84 175.9 229.52 188.17 221.89 188.11 220.2 175.84 227.84"/><g class="cls-4"><g class="cls-61"><g class="cls-4"><path class="cls-2" d="M175,227.9l.06,1.68a.89.89,0,0,0,.85-.06l0-1.68a1,1,0,0,1-.86.06Z"/></g></g></g><path class="cls-40" d="M173.1,226.49c-.23.15-.22.37,0,.49l1.85.92a1,1,0,0,0,.86-.06l12.27-7.64a.26.26,0,0,0,0-.5l-1.85-.91a.94.94,0,0,0-.86.06Z"/></g><g class="cls-4"><g class="cls-4"><g class="cls-62"><g class="cls-4"><path class="cls-2" d="M184,217.84l0,1.68a.31.31,0,0,0,.17-.26l-.06-1.68a.3.3,0,0,1-.16.26Z"/></g></g></g><g class="cls-4"><g class="cls-63"><g class="cls-4"><path class="cls-2" d="M168.78,224.38l.06,1.69a.3.3,0,0,0,.19.23l-.05-1.68a.31.31,0,0,1-.2-.24Z"/></g></g></g><polygon class="cls-2" points="168.98 224.62 169.03 226.3 170.88 227.22 170.83 225.53 168.98 224.62"/><polygon class="cls-38" points="171.69 225.48 171.74 227.16 184.01 219.52 183.96 217.84 171.69 225.48"/><g class="cls-4"><g class="cls-64"><g class="cls-4"><path class="cls-2" d="M170.83,225.53l0,1.69a.94.94,0,0,0,.86-.06l-.05-1.68a.94.94,0,0,1-.86.05Z"/></g></g></g><path class="cls-40" d="M168.94,224.12c-.22.16-.21.38,0,.5l1.85.91a.94.94,0,0,0,.86-.05L184,217.84c.23-.16.21-.38,0-.5l-1.85-.91a.94.94,0,0,0-.86.06Z"/></g><g class="cls-4"><g class="cls-4"><g class="cls-65"><g class="cls-4"><path class="cls-2" d="M159.31,203.69l.05,1.69a.32.32,0,0,0,.17-.26l-.06-1.69a.3.3,0,0,1-.16.26Z"/></g></g></g><g class="cls-4"><g class="cls-66"><g class="cls-4"><path class="cls-2" d="M144.13,210.24l.06,1.68c0,.1.07.18.19.24l0-1.69a.28.28,0,0,1-.2-.23Z"/></g></g></g><polygon class="cls-2" points="144.33 210.47 144.38 212.16 146.23 213.07 146.18 211.39 144.33 210.47"/><polygon class="cls-38" points="147.04 211.33 147.09 213.02 159.36 205.38 159.31 203.69 147.04 211.33"/><g class="cls-4"><g class="cls-67"><g class="cls-4"><path class="cls-2" d="M146.18,211.39l0,1.68a1,1,0,0,0,.86,0l-.05-1.69a1,1,0,0,1-.86.06Z"/></g></g></g><path class="cls-40" d="M144.3,210c-.23.15-.22.37,0,.49l1.85.92a1,1,0,0,0,.86-.06l12.27-7.64a.27.27,0,0,0,0-.5l-1.85-.91a.94.94,0,0,0-.86.06Z"/></g><g class="cls-4"><g class="cls-4"><g class="cls-68"><g class="cls-4"><path class="cls-2" d="M155.16,201.33l.05,1.68a.28.28,0,0,0,.16-.26l-.05-1.68a.34.34,0,0,1-.16.26Z"/></g></g></g><g class="cls-4"><g class="cls-69"><g class="cls-4"><path class="cls-2" d="M140,207.88l.06,1.68a.29.29,0,0,0,.19.24l-.06-1.69a.32.32,0,0,1-.19-.23Z"/></g></g></g><polygon class="cls-2" points="140.17 208.11 140.23 209.8 142.08 210.71 142.02 209.02 140.17 208.11"/><polygon class="cls-38" points="142.88 208.97 142.94 210.65 155.21 203.01 155.16 201.33 142.88 208.97"/><g class="cls-4"><g class="cls-70"><g class="cls-4"><path class="cls-2" d="M142,209l.06,1.69a.94.94,0,0,0,.86-.06l-.06-1.68a.93.93,0,0,1-.86.05Z"/></g></g></g><path class="cls-40" d="M140.14,207.61c-.23.16-.21.38,0,.5L142,209a.93.93,0,0,0,.86-.05l12.28-7.64a.27.27,0,0,0,0-.5l-1.85-.91a.91.91,0,0,0-.86.06Z"/></g><g class="cls-4"><g class="cls-4"><g class="cls-71"><g class="cls-4"><path class="cls-2" d="M175.82,212.92l.05,1.69a.33.33,0,0,0,.17-.26l-.06-1.69a.3.3,0,0,1-.16.26Z"/></g></g></g><g class="cls-4"><g class="cls-72"><g class="cls-4"><path class="cls-2" d="M160.64,219.47l.06,1.68a.31.31,0,0,0,.19.24l0-1.69a.3.3,0,0,1-.2-.23Z"/></g></g></g><polygon class="cls-2" points="160.84 219.7 160.89 221.39 162.74 222.3 162.69 220.62 160.84 219.7"/><polygon class="cls-38" points="163.55 220.56 163.6 222.24 175.87 214.61 175.82 212.92 163.55 220.56"/><g class="cls-4"><g class="cls-73"><g class="cls-4"><path class="cls-2" d="M162.69,220.62l.05,1.68a.94.94,0,0,0,.86-.06l0-1.68a1,1,0,0,1-.86.06Z"/></g></g></g><path class="cls-40" d="M160.81,219.21c-.23.15-.22.37,0,.49l1.85.92a1,1,0,0,0,.86-.06l12.27-7.64a.26.26,0,0,0,0-.5l-1.85-.91a.94.94,0,0,0-.86.06Z"/></g><g class="cls-4"><g class="cls-4"><g class="cls-74"><g class="cls-4"><path class="cls-2" d="M171.67,210.56l.05,1.68a.28.28,0,0,0,.16-.26l0-1.68a.33.33,0,0,1-.16.26Z"/></g></g></g><g class="cls-4"><g class="cls-75"><g class="cls-4"><path class="cls-2" d="M156.49,217.1l.06,1.69c0,.09.07.17.19.23l-.06-1.68a.3.3,0,0,1-.19-.24Z"/></g></g></g><polygon class="cls-2" points="156.68 217.34 156.74 219.02 158.59 219.94 158.53 218.26 156.68 217.34"/><polygon class="cls-38" points="159.39 218.19 159.45 219.88 171.72 212.24 171.67 210.56 159.39 218.19"/><g class="cls-4"><g class="cls-76"><g class="cls-4"><path class="cls-2" d="M158.53,218.26l.06,1.68a.94.94,0,0,0,.86-.06l-.06-1.68a1,1,0,0,1-.86.06Z"/></g></g></g><path class="cls-40" d="M156.65,216.84a.27.27,0,0,0,0,.5l1.85.92a1,1,0,0,0,.86-.06l12.28-7.64c.22-.16.21-.38,0-.5l-1.85-.91a.91.91,0,0,0-.86.06Z"/></g><g class="cls-4"><g class="cls-4"><g class="cls-77"><g class="cls-4"><path class="cls-2" d="M167.31,208.2l.05,1.68a.28.28,0,0,0,.16-.26l-.05-1.68a.3.3,0,0,1-.16.26Z"/></g></g></g><g class="cls-4"><g class="cls-78"><g class="cls-4"><path class="cls-2" d="M152.13,214.75l.06,1.68c0,.09.07.17.19.23l-.06-1.68a.32.32,0,0,1-.19-.23Z"/></g></g></g><polygon class="cls-2" points="152.32 214.98 152.38 216.66 154.23 217.58 154.17 215.9 152.32 214.98"/><polygon class="cls-38" points="155.03 215.84 155.09 217.52 167.36 209.88 167.31 208.2 155.03 215.84"/><g class="cls-4"><g class="cls-79"><g class="cls-4"><path class="cls-2" d="M154.17,215.89l.06,1.69a.94.94,0,0,0,.86-.06l-.06-1.68a.93.93,0,0,1-.86,0Z"/></g></g></g><path class="cls-40" d="M152.29,214.48c-.22.16-.21.38,0,.5l1.85.91a.93.93,0,0,0,.86,0l12.28-7.64c.22-.16.21-.38,0-.5l-1.86-.91a1,1,0,0,0-.86.05Z"/></g><g class="cls-4"><g class="cls-4"><g class="cls-80"><g class="cls-4"><path class="cls-2" d="M145.09,195.62l0,1.68a.28.28,0,0,0,.16-.26l-.05-1.69a.32.32,0,0,1-.16.27Z"/></g></g></g><g class="cls-4"><g class="cls-81"><g class="cls-4"><path class="cls-2" d="M129.91,202.16l.06,1.69c0,.09.07.17.19.23l-.06-1.69a.29.29,0,0,1-.19-.23Z"/></g></g></g><polygon class="cls-2" points="130.1 202.39 130.16 204.08 132.01 205 131.95 203.31 130.1 202.39"/><polygon class="cls-38" points="132.81 203.25 132.87 204.94 145.14 197.3 145.09 195.62 132.81 203.25"/><g class="cls-4"><g class="cls-82"><g class="cls-4"><path class="cls-2" d="M132,203.31,132,205a.94.94,0,0,0,.86-.05l-.06-1.69a1,1,0,0,1-.86.06Z"/></g></g></g><path class="cls-40" d="M130.07,201.9a.26.26,0,0,0,0,.49l1.85.92a1,1,0,0,0,.86-.06l12.28-7.63c.22-.16.21-.38,0-.5l-1.86-.92a1,1,0,0,0-.86.06Z"/></g><g class="cls-4"><g class="cls-4"><g class="cls-83"><g class="cls-4"><path class="cls-2" d="M140.93,193.25l.06,1.69a.32.32,0,0,0,.16-.26l-.06-1.69a.28.28,0,0,1-.16.26Z"/></g></g></g><g class="cls-4"><g class="cls-84"><g class="cls-4"><path class="cls-2" d="M125.76,199.8l0,1.68a.31.31,0,0,0,.19.24l0-1.69a.3.3,0,0,1-.19-.23Z"/></g></g></g><polygon class="cls-2" points="125.95 200.03 126 201.72 127.86 202.63 127.8 200.95 125.95 200.03"/><polygon class="cls-38" points="128.66 200.89 128.71 202.57 140.99 194.94 140.93 193.25 128.66 200.89"/><g class="cls-4"><g class="cls-85"><g class="cls-4"><path class="cls-2" d="M127.8,201l.06,1.68a.91.91,0,0,0,.85,0l-.05-1.69a1,1,0,0,1-.86.06Z"/></g></g></g><path class="cls-40" d="M125.92,199.54c-.23.15-.22.37,0,.49l1.85.92a1,1,0,0,0,.86-.06l12.27-7.64c.23-.15.22-.37,0-.5l-1.85-.91a.94.94,0,0,0-.86.06Z"/></g><g class="cls-4"><g class="cls-4"><g class="cls-86"><g class="cls-4"><path class="cls-2" d="M116.28,179.1l.06,1.69a.3.3,0,0,0,.16-.26l-.06-1.69a.28.28,0,0,1-.16.26Z"/></g></g></g><g class="cls-4"><g class="cls-87"><g class="cls-4"><path class="cls-2" d="M101.11,185.65l0,1.69a.3.3,0,0,0,.2.23l-.06-1.69a.27.27,0,0,1-.19-.23Z"/></g></g></g><polygon class="cls-2" points="101.3 185.88 101.36 187.57 103.21 188.48 103.15 186.8 101.3 185.88"/><polygon class="cls-38" points="104.01 186.74 104.06 188.43 116.34 180.79 116.28 179.1 104.01 186.74"/><g class="cls-4"><g class="cls-88"><g class="cls-4"><path class="cls-2" d="M103.15,186.8l.06,1.68a.91.91,0,0,0,.85,0l0-1.69a.94.94,0,0,1-.86.06Z"/></g></g></g><path class="cls-40" d="M101.27,185.39c-.23.15-.22.37,0,.49l1.85.92a.94.94,0,0,0,.86-.06l12.27-7.64c.23-.15.22-.37,0-.5l-1.85-.91a1,1,0,0,0-.86.06Z"/></g><g class="cls-4"><g class="cls-4"><g class="cls-89"><g class="cls-4"><path class="cls-2" d="M112.13,176.74l.05,1.68a.31.31,0,0,0,.17-.26l-.06-1.68a.3.3,0,0,1-.16.26Z"/></g></g></g><g class="cls-4"><g class="cls-90"><g class="cls-4"><path class="cls-2" d="M97,183.29,97,185a.29.29,0,0,0,.19.24l0-1.69a.28.28,0,0,1-.2-.23Z"/></g></g></g><polygon class="cls-2" points="97.14 183.52 97.2 185.21 99.05 186.12 99 184.44 97.14 183.52"/><polygon class="cls-38" points="99.86 184.38 99.91 186.06 112.18 178.42 112.13 176.74 99.86 184.38"/><g class="cls-4"><g class="cls-91"><g class="cls-4"><path class="cls-2" d="M99,184.43l0,1.69a.91.91,0,0,0,.86-.06l0-1.68a.94.94,0,0,1-.86.05Z"/></g></g></g><path class="cls-40" d="M97.11,183a.26.26,0,0,0,0,.49l1.85.91a.94.94,0,0,0,.86-.05l12.27-7.64a.27.27,0,0,0,0-.5l-1.85-.91a.94.94,0,0,0-.86.06Z"/></g><g class="cls-4"><g class="cls-4"><g class="cls-92"><g class="cls-4"><path class="cls-2" d="M132.79,188.34l.06,1.68a.3.3,0,0,0,.16-.26l-.06-1.69a.3.3,0,0,1-.16.27Z"/></g></g></g><g class="cls-4"><g class="cls-93"><g class="cls-4"><path class="cls-2" d="M117.62,194.88l0,1.69a.31.31,0,0,0,.2.23l-.06-1.69a.27.27,0,0,1-.19-.23Z"/></g></g></g><polygon class="cls-2" points="117.81 195.11 117.86 196.8 119.72 197.71 119.66 196.03 117.81 195.11"/><polygon class="cls-38" points="120.52 195.97 120.57 197.66 132.85 190.02 132.79 188.34 120.52 195.97"/><g class="cls-4"><g class="cls-94"><g class="cls-4"><path class="cls-2" d="M119.66,196l.06,1.68a.91.91,0,0,0,.85-.05l0-1.69a1,1,0,0,1-.86.06Z"/></g></g></g><path class="cls-40" d="M117.78,194.62c-.23.15-.22.37,0,.49l1.85.92a1,1,0,0,0,.86-.06l12.27-7.63c.23-.16.22-.38,0-.5l-1.85-.92a1,1,0,0,0-.86.06Z"/></g><g class="cls-4"><g class="cls-4"><g class="cls-95"><g class="cls-4"><path class="cls-2" d="M128.64,186l.05,1.69a.33.33,0,0,0,.17-.26l-.06-1.69a.3.3,0,0,1-.16.26Z"/></g></g></g><g class="cls-4"><g class="cls-96"><g class="cls-4"><path class="cls-2" d="M113.46,192.52l.06,1.68a.29.29,0,0,0,.19.24l-.06-1.69a.3.3,0,0,1-.19-.23Z"/></g></g></g><polygon class="cls-2" points="113.66 192.75 113.71 194.44 115.56 195.35 115.51 193.66 113.66 192.75"/><polygon class="cls-38" points="116.37 193.61 116.42 195.29 128.69 187.66 128.64 185.97 116.37 193.61"/><g class="cls-4"><g class="cls-97"><g class="cls-4"><path class="cls-2" d="M115.51,193.66l0,1.69a.91.91,0,0,0,.86-.06l0-1.68a.94.94,0,0,1-.86,0Z"/></g></g></g><path class="cls-40" d="M113.62,192.26a.26.26,0,0,0,0,.49l1.86.91a.94.94,0,0,0,.86,0L128.64,186c.23-.15.21-.37,0-.5l-1.85-.91a.94.94,0,0,0-.86.06Z"/></g><g class="cls-4"><g class="cls-4"><g class="cls-98"><g class="cls-4"><path class="cls-2" d="M124.28,183.61l0,1.69a.33.33,0,0,0,.17-.26l-.06-1.69a.3.3,0,0,1-.16.26Z"/></g></g></g><g class="cls-4"><g class="cls-99"><g class="cls-4"><path class="cls-2" d="M109.1,190.16l.06,1.68a.31.31,0,0,0,.19.24l0-1.69a.3.3,0,0,1-.2-.23Z"/></g></g></g><polygon class="cls-2" points="109.3 190.39 109.35 192.08 111.2 192.99 111.15 191.31 109.3 190.39"/><polygon class="cls-38" points="112.01 191.25 112.06 192.93 124.33 185.3 124.28 183.61 112.01 191.25"/><g class="cls-4"><g class="cls-100"><g class="cls-4"><path class="cls-2" d="M111.15,191.31l0,1.68a.94.94,0,0,0,.86-.06l0-1.68a1,1,0,0,1-.86.06Z"/></g></g></g><path class="cls-40" d="M109.26,189.89c-.22.16-.21.38,0,.5l1.85.92a1,1,0,0,0,.86-.06l12.27-7.64c.23-.15.21-.37,0-.5l-1.85-.91a.94.94,0,0,0-.86.06Z"/></g><g class="cls-4"><g class="cls-4"><g class="cls-101"><g class="cls-4"><path class="cls-2" d="M103,171.11l.05,1.68a.28.28,0,0,0,.16-.26l0-1.68a.3.3,0,0,1-.16.26Z"/></g></g></g><g class="cls-4"><g class="cls-102"><g class="cls-4"><path class="cls-2" d="M87.81,177.66l.06,1.68c0,.09.07.17.19.24L88,177.89a.32.32,0,0,1-.19-.23Z"/></g></g></g><polygon class="cls-2" points="88 177.89 88.06 179.58 89.91 180.49 89.86 178.81 88 177.89"/><polygon class="cls-38" points="90.71 178.75 90.77 180.43 103.04 172.79 102.99 171.11 90.71 178.75"/><g class="cls-4"><g class="cls-103"><g class="cls-4"><path class="cls-2" d="M89.86,178.81l0,1.68a.94.94,0,0,0,.86-.06l-.06-1.68a.94.94,0,0,1-.85.06Z"/></g></g></g><path class="cls-40" d="M88,177.39a.27.27,0,0,0,0,.5l1.86.92a.94.94,0,0,0,.85-.06L103,171.11c.23-.16.21-.38,0-.5l-1.86-.91a.89.89,0,0,0-.85.06Z"/></g><g class="cls-4"><g class="cls-4"><g class="cls-104"><g class="cls-4"><path class="cls-2" d="M98.83,168.75l.06,1.68a.3.3,0,0,0,.16-.26l0-1.69a.33.33,0,0,1-.17.27Z"/></g></g></g><g class="cls-4"><g class="cls-105"><g class="cls-4"><path class="cls-2" d="M83.66,175.29l0,1.69a.3.3,0,0,0,.2.23l-.06-1.68a.31.31,0,0,1-.19-.24Z"/></g></g></g><polygon class="cls-2" points="83.85 175.53 83.91 177.21 85.76 178.13 85.7 176.44 83.85 175.53"/><polygon class="cls-38" points="86.56 176.38 86.61 178.07 98.89 170.43 98.83 168.75 86.56 176.38"/><g class="cls-4"><g class="cls-106"><g class="cls-4"><path class="cls-2" d="M85.7,176.44l.06,1.68a.94.94,0,0,0,.86-.05l-.06-1.69a1,1,0,0,1-.86.06Z"/></g></g></g><path class="cls-40" d="M83.82,175c-.23.15-.22.37,0,.5l1.85.91a1,1,0,0,0,.86-.06l12.27-7.63c.23-.16.22-.38,0-.5L97,167.33a1,1,0,0,0-.86.06Z"/></g><g class="cls-4"><g class="cls-4"><g class="cls-107"><g class="cls-4"><path class="cls-2" d="M94.47,166.38l.06,1.69a.29.29,0,0,0,.16-.26l0-1.69a.31.31,0,0,1-.17.26Z"/></g></g></g><g class="cls-4"><g class="cls-108"><g class="cls-4"><path class="cls-2" d="M79.3,172.93l0,1.69a.3.3,0,0,0,.2.23l-.06-1.68a.29.29,0,0,1-.19-.24Z"/></g></g></g><polygon class="cls-2" points="79.49 173.17 79.55 174.85 81.4 175.77 81.34 174.08 79.49 173.17"/><polygon class="cls-38" points="82.2 174.02 82.25 175.71 94.53 168.07 94.47 166.38 82.2 174.02"/><g class="cls-4"><g class="cls-109"><g class="cls-4"><path class="cls-2" d="M81.34,174.08l.06,1.69a.94.94,0,0,0,.85-.06l0-1.69a.94.94,0,0,1-.86.06Z"/></g></g></g><path class="cls-40" d="M79.46,172.67a.27.27,0,0,0,0,.5l1.85.91a.94.94,0,0,0,.86-.06l12.27-7.64c.23-.15.22-.37,0-.49L92.59,165a.94.94,0,0,0-.86.05Z"/></g></svg>