<svg id="Capa_1" data-name="Capa 1" xmlns="http://www.w3.org/2000/svg" viewBox="0 0 350 348"><defs><style>.cls-1{fill:#ee711b;}.cls-2{fill:#3a3c54;}.cls-3{fill:#fcf7f1;}</style></defs><title>Mesa de trabajo 1</title><rect class="cls-1" x="90.24" y="72.41" width="217.93" height="271.04"/><path class="cls-2" d="M221.79,168.72c-19.87-6.17-42.84-5-46.13,5.23-1.51,4.71,1.4,10.53,6.9,16a122.13,122.13,0,0,0-1.28,34.38l4.81,73.94a3.65,3.65,0,0,1-3.28,4,1.61,1.61,0,0,1-1.76-1.44l-4.56-46.22,1.77-.17a1.34,1.34,0,0,0-.27-2.67l-1.77.17-4.17-42.28,1.77-.18a1.33,1.33,0,0,0,1.2-1.46,1.35,1.35,0,0,0-1.47-1.21l-1.77.18-2.84-28.81,1.77-.17a1.35,1.35,0,0,0-.26-2.68l-1.77.18-.6-6a1.34,1.34,0,0,0-1.46-1.21,1.36,1.36,0,0,0-1.21,1.47l.59,6-4,.4-3.38-24.72,3.88-.42c.6,1.84,1.92,3.09,3.34,2.94,1.73-.19,2.91-2.4,2.64-4.93s-1.9-4.44-3.63-4.26c-1.41.15-2.44,1.66-2.63,3.58l-4,.42L156.8,138l4.28-.46c.59,1.84,1.92,3.09,3.33,2.94,1.73-.19,2.91-2.39,2.64-4.93s-1.89-4.44-3.62-4.25c-1.42.15-2.45,1.65-2.64,3.57l-4.35.47L155,124.43l4.67-.5c.6,1.84,1.92,3.09,3.34,2.94,1.73-.19,2.91-2.4,2.64-4.93s-1.9-4.44-3.63-4.26c-1.41.16-2.44,1.66-2.63,3.58l-4.75.51L144.05,44.63a41.16,41.16,0,0,0-1.78-8,28.85,28.85,0,0,0,.53-6.33A27.22,27.22,0,0,0,132.7,9.56l.88-2.27a1.34,1.34,0,0,0-2.5-1L130.44,8l-.86-.54a47.11,47.11,0,0,0-14.39-5.25L115,.21a1.34,1.34,0,0,0-2.67.27l.12,1.21a49.25,49.25,0,0,0-7.17-.59,1.35,1.35,0,1,0,0,2.69,49.23,49.23,0,0,1,7.41.67l.4,4a53,53,0,0,0-7.29-1.3L83.66,5.1,74.25,1.26a15.17,15.17,0,0,0-5.92-1L58.59.53A4.19,4.19,0,0,0,55,2.69a4.22,4.22,0,0,1-2.47,2l-9.73,2.9A1.41,1.41,0,0,0,43,10.32l25.53,4a15.26,15.26,0,0,0,4.77,0l8.84-1.79c17.28,1.43,25.13,5.69,31.59,11.31a30.21,30.21,0,0,1,10.09,19.86l2.1,21.35a9.75,9.75,0,0,0-6.23,10.05l.5,5.07-2.84.28a1.34,1.34,0,0,0,.27,2.67l2.84-.28,1.3,13.2-2.84.28a1.35,1.35,0,0,0,.26,2.68l2.84-.28,5.19,52.46-2.84.28a1.35,1.35,0,1,0,.26,2.68l2.84-.28L130,179.36l-2.84.28a1.35,1.35,0,0,0-1.2,1.47,1.33,1.33,0,0,0,1.47,1.2l2.84-.28,3,30.19-2.84.29a1.33,1.33,0,0,0-1.2,1.46,1.34,1.34,0,0,0,1.46,1.21l2.84-.28,2.72,27.46-1.64.15c-.59-1.85-2-3.12-3.5-3-1.85.16-3.17,2.36-2.94,4.9s1.92,4.46,3.77,4.29c1.52-.13,2.66-1.62,2.91-3.54l1.66-.15,1.08,10.91-1.75.15c-.59-1.85-2-3.11-3.5-3-1.86.17-3.18,2.37-2.95,4.91s1.92,4.46,3.78,4.29c1.51-.14,2.65-1.62,2.91-3.54l1.77-.16,1.08,10.9-1.86.17c-.59-1.85-2-3.12-3.5-3-1.86.17-3.18,2.36-2.95,4.9s1.92,4.47,3.78,4.3c1.51-.14,2.65-1.63,2.9-3.54l1.89-.17,1.08,10.9-1.89.17c-.59-1.85-2-3.12-3.5-3-1.86.17-3.18,2.36-2.95,4.9s1.92,4.47,3.78,4.3c1.51-.14,2.65-1.63,2.9-3.54l1.92-.18,2.23,22.53-2.84.28a1.34,1.34,0,1,0,.26,2.67L143,311l.43,4.33a9.74,9.74,0,0,0,10.1,8.76c5.34,11.13,16.68,19.74,28.79,22.51,21.28,4.87,42-11.21,42.66-44.27.51-27.65-4.45-70.68,14.36-94.41h0c6.43-1.58,11-4.77,12.52-9.39C255.11,188.22,241.67,174.9,221.79,168.72ZM122.37,74.89a7.06,7.06,0,0,1,3.84-7l1.15,11.59-4.48.45Zm.77,7.74,4.48-.44,1.31,13.2-4.49.44Zm1.57,15.87,4.48-.44,5.18,52.47-4.48.44Zm5.44,55.14,4.49-.44,2.51,25.45-4.48.45Zm2.78,28.13,4.48-.44,3,30.19-4.49.44Zm3.25,32.86,4.48-.44,2.72,27.52-4.49.41Zm3,30.16,4.48-.41,1.08,10.91-4.49.4Zm1.34,13.58L145,258l1.08,10.91-4.49.4Zm1.34,13.57,4.48-.4,1.08,10.9-4.49.41Zm1.34,13.58,4.49-.4,2.21,22.46-4.48.44ZM146.09,315l-.42-4.34,4.48-.44.31,3.16a31.3,31.3,0,0,0,1.9,7.94A7.08,7.08,0,0,1,146.09,315ZM115.9,9.3,115.47,5a43.69,43.69,0,0,1,12.75,4.76c.42.24.83.5,1.23.76l-1.86,4.77A39.76,39.76,0,0,0,115.9,9.3Zm24.21,21c0,.24,0,.46,0,.7a41.38,41.38,0,0,0-10.33-14l1.89-4.85A24.6,24.6,0,0,1,140.11,30.34Zm36.4,251.88L172.79,255l1-.1Zm-3-30-1.12.11-5.76-42.12,2.71-.27Zm-4.44-44.95-2.8.28-3.92-28.7,3.88-.38Z"/><path class="cls-3" d="M227.81,215.5c-6.55,18.3-7.35,37.49-7.23,56.76.07,10.78.82,21.72.1,32.49-.64,9.49-3.24,19.5-9.52,26.89a25.39,25.39,0,0,1-26.42,8.28,25.18,25.18,0,0,0,23.26-8c6.26-7,8.75-16.73,9.38-25.93.37-5.36.13-10.76.08-16.13s-.1-10.45-.11-15.67a203.21,203.21,0,0,1,1.89-30.3A97.18,97.18,0,0,1,227.81,215.5Z"/><path class="cls-3" d="M239.24,207.84c-7.87,1.93-18.43,1.45-29.36-1.94a73.45,73.45,0,0,1-20.43-10.12C202.2,206.1,220.38,213,237.1,211c.71-1.06,1.44-2.11,2.23-3.1Z"/><path class="cls-3" d="M186.77,177.75c1.07-1.78,3.8-2.46,5.65-2.95a38.39,38.39,0,0,1,8.93-1.12,56.31,56.31,0,0,1,17.15,2.41,46.74,46.74,0,0,1,14.57,7,27.85,27.85,0,0,1,6.09,5.93c1.17,1.62,2.86,4.16,2.08,6.28.26-2.24-2.27-4.56-3.75-5.89a37.25,37.25,0,0,0-6.66-4.7,63.19,63.19,0,0,0-13.69-5.58,80.76,80.76,0,0,0-15.86-3,54.77,54.77,0,0,0-8.3-.1C191.12,176.27,188.18,176.34,186.77,177.75Z"/><path class="cls-3" d="M147.26,252.26q-4.51-43.74-8.84-87.5c-2.08-21-4.18-42.09-6.17-63.15Q130.78,86,129.3,70.38c-.48-5.15-1-10.31-1.41-15.47-.42-4.86-.56-9.85-1.37-14.66a33.59,33.59,0,0,0-16.75-23.68c-8.12-4.61-17.56-5.45-26.58-7,8.34,0,17.12.78,24.85,4.09a35.22,35.22,0,0,1,18.79,19.56c1.73,4.53,2.18,9.17,2.65,14,.49,5.07,1,10.14,1.47,15.22,1,10.35,1.87,20.7,2.8,31q5.42,60.17,10.39,120.38Z"/><path class="cls-3" d="M44.46,8.85S46,8.26,48.27,7.46c1.15-.38,2.48-.85,3.93-1.3a7.39,7.39,0,0,0,2.06-.85,5.49,5.49,0,0,0,1.59-1.56,8.85,8.85,0,0,1,.73-1A2.93,2.93,0,0,1,57.75,2,3.71,3.71,0,0,1,59,1.82l1.16,0c1.51,0,2.93,0,4.14,0,2.43,0,4,.12,4,.12s-1.61.18-4,.36c-1.21.07-2.63.19-4.14.25a9.49,9.49,0,0,0-2.2.19,2.05,2.05,0,0,0-.84.55,8.92,8.92,0,0,0-.63,1A6.12,6.12,0,0,1,54.67,6a8.34,8.34,0,0,1-2.26.87c-1.46.42-2.84.75-4,1.07C46.05,8.51,44.46,8.85,44.46,8.85Z"/><path class="cls-3" d="M69,14.41a15.45,15.45,0,0,0,1.67.13l1-14A15.61,15.61,0,0,0,70.05.3Z"/><ellipse class="cls-2" cx="187.23" cy="238.05" rx="10.52" ry="12.85" transform="translate(-1.39 1.1) rotate(-0.33)"/><path class="cls-3" d="M188.16,251.28a8.08,8.08,0,0,1-.85.05c-6,0-11-5.89-11-13.21s4.82-13.32,10.86-13.34a10,10,0,0,1,7.79,3.87,14.77,14.77,0,0,1,3.23,9.34h0a14.76,14.76,0,0,1-3.12,9.37A10.2,10.2,0,0,1,188.16,251.28Zm-1.77-25.62c-5.21.51-9.3,5.91-9.26,12.45,0,6.86,4.6,12.41,10.17,12.38a9.17,9.17,0,0,0,7.09-3.66,13.91,13.91,0,0,0,2.94-8.84h0a13.91,13.91,0,0,0-3-8.8,9.16,9.16,0,0,0-7.13-3.57A6.51,6.51,0,0,0,186.39,225.66Z"/><polygon class="cls-3" points="187.14 237.14 180.23 247.24 178.31 245.62 187.14 237.14"/><path class="cls-2" d="M199.53,270.42c0,6.14-4,11.14-9,11.17s-9.13-4.92-9.17-11.06,4-11.15,9-11.18S199.49,264.28,199.53,270.42Z"/><path class="cls-3" d="M191.24,282a6,6,0,0,1-.74,0,8.69,8.69,0,0,1-6.78-3.37,13.34,13.34,0,0,1-.09-16.26,8.4,8.4,0,0,1,13.51-.08,12.87,12.87,0,0,1,2.81,8.12h0a12.84,12.84,0,0,1-2.71,8.14A8.82,8.82,0,0,1,191.24,282Zm-1.54-22.16a8,8,0,0,0-5.42,3.1,12.5,12.5,0,0,0,.09,15.2,7.56,7.56,0,0,0,12.21-.08,11.93,11.93,0,0,0,2.53-7.61h0a12,12,0,0,0-2.62-7.58,7.88,7.88,0,0,0-6.12-3.07C190.15,259.77,189.92,259.79,189.7,259.81Z"/><polygon class="cls-3" points="190.35 269.68 184.51 278.53 182.59 276.9 190.35 269.68"/><path class="cls-2" d="M201.51,299.38c0,5.55-3.62,10.06-8.16,10.09s-8.24-4.45-8.27-10,3.62-10.06,8.15-10.09S201.47,293.84,201.51,299.38Z"/><path class="cls-3" d="M194,309.86c-.22,0-.44,0-.67,0a7.9,7.9,0,0,1-6.15-3.06,11.59,11.59,0,0,1-2.54-7.35c0-5.77,3.79-10.48,8.57-10.51s8.66,4.64,8.7,10.41h0C202,304.88,198.47,309.42,194,309.86Zm-.79-20.05-.59,0c-4,.4-7.17,4.58-7.14,9.64a10.78,10.78,0,0,0,2.35,6.82,7.07,7.07,0,0,0,5.5,2.75c4.28,0,7.77-4.36,7.74-9.66S197.53,289.79,193.23,289.81Z"/><polygon class="cls-3" points="193.22 298.72 188.04 306.79 186.12 305.16 193.22 298.72"/><path class="cls-2" d="M179.26,336c0,6.92-4.52,12.56-10.18,12.59S158.8,343,158.76,336.11s4.51-12.56,10.17-12.59S179.22,329.07,179.26,336Z"/><path class="cls-3" d="M169.91,349c-.28,0-.55,0-.83,0a9.76,9.76,0,0,1-7.59-3.78,14.34,14.34,0,0,1-3.15-9.11c0-7.14,4.7-12.95,10.59-13a9.8,9.8,0,0,1,7.6,3.78,14.42,14.42,0,0,1,3.15,9.11C179.72,342.79,175.4,348.41,169.91,349Zm-1.72-25c-5.07.5-9.05,5.76-9,12.13a13.57,13.57,0,0,0,2.95,8.58,9,9,0,0,0,7,3.47c5.44,0,9.8-5.49,9.76-12.17a13.53,13.53,0,0,0-3-8.57,8.94,8.94,0,0,0-6.94-3.48C168.69,323.94,168.44,324,168.19,324Z"/><polygon class="cls-3" points="168.92 335.16 162.21 345.03 160.29 343.4 168.92 335.16"/><path class="cls-2" d="M174.56,297.26a10.22,10.22,0,1,1-.08-14.46A10.22,10.22,0,0,1,174.56,297.26Z"/><path class="cls-3" d="M168.35,300.67c-.33,0-.66.05-1,.05a10.54,10.54,0,0,1-7.54-3.07,10.64,10.64,0,1,1,8.54,3Zm-2-20.35A9.8,9.8,0,1,0,174.26,297a9.81,9.81,0,0,0-7-16.7C166.92,280.27,166.61,280.29,166.31,280.32Z"/><polygon class="cls-3" points="166.63 290.22 157.08 292.27 156.87 289.76 166.63 290.22"/><path class="cls-2" d="M171.53,273.53a9.16,9.16,0,1,1-.08-12.95A9.17,9.17,0,0,1,171.53,273.53Z"/><path class="cls-3" d="M166,276.62c-.3,0-.6.05-.9.05a9.61,9.61,0,1,1,.9-.05Zm-1.83-18.23a8.74,8.74,0,1,0,7.09,14.84h0A8.74,8.74,0,0,0,165,258.35C164.68,258.35,164.41,258.37,164.14,258.39Z"/><polygon class="cls-3" points="164.42 267.22 155.88 269.19 155.67 266.68 164.42 267.22"/><path class="cls-2" d="M168.86,250.15a8.6,8.6,0,1,1-.07-12.17A8.61,8.61,0,0,1,168.86,250.15Z"/><path class="cls-3" d="M163.63,253.08a9,9,0,1,1,5.53-2.63A9,9,0,0,1,163.63,253.08ZM161.92,236a8.21,8.21,0,1,0,.77,0C162.43,235.92,162.17,235.94,161.92,236Z"/><polygon class="cls-3" points="162.18 244.22 154.16 246.15 153.96 243.64 162.18 244.22"/><path class="cls-2" d="M166.18,226.77a8,8,0,1,1-.07-11.37A8,8,0,0,1,166.18,226.77Z"/><path class="cls-3" d="M161.31,229.53a7,7,0,0,1-.8,0,8.4,8.4,0,1,1,.8,0Zm-1.61-16a7.61,7.61,0,1,0,6.18,12.93h0a7.62,7.62,0,0,0-5.46-13C160.18,213.5,159.94,213.52,159.7,213.54Z"/><polygon class="cls-3" points="159.94 221.23 152.46 223.11 152.26 220.6 159.94 221.23"/><path class="cls-2" d="M163.27,203.15a7.14,7.14,0,1,1-.06-10.1A7.13,7.13,0,0,1,163.27,203.15Z"/><path class="cls-3" d="M158.94,205.65a7.55,7.55,0,1,1,4.63-2.2h0A7.51,7.51,0,0,1,158.94,205.65Zm-1.42-14.21a6.73,6.73,0,1,0,5.39,1.91A6.7,6.7,0,0,0,157.52,191.44Z"/><polygon class="cls-3" points="157.73 198.23 151.09 200.04 150.88 197.53 157.73 198.23"/><path class="cls-2" d="M160.71,183.33a6.21,6.21,0,1,1-.05-8.78A6.22,6.22,0,0,1,160.71,183.33Z"/><path class="cls-3" d="M157,185.56c-.2,0-.41,0-.62,0a6.63,6.63,0,1,1,4.67-2A6.54,6.54,0,0,1,157,185.56Zm-1.24-12.36a5.79,5.79,0,1,0,4.7,9.83h0a5.79,5.79,0,0,0-4.7-9.83Z"/><polygon class="cls-3" points="155.89 179.05 150.13 180.79 149.92 178.28 155.89 179.05"/><path class="cls-2" d="M158.78,165.55a5.95,5.95,0,1,1-.05-8.41A5.94,5.94,0,0,1,158.78,165.55Z"/><path class="cls-3" d="M155.19,167.71l-.6,0a6.29,6.29,0,1,1,.6,0ZM154,155.87a5.53,5.53,0,1,0,4.44,1.57A5.48,5.48,0,0,0,154,155.87Z"/><polygon class="cls-3" points="154.16 161.45 148.65 163.17 148.45 160.66 154.16 161.45"/></svg>